<svg width="16" height="16" viewBox="0 0 16 16" fill="none" xmlns="http://www.w3.org/2000/svg">
<g clip-path="url(#clip0_1888_3250)">
<path d="M15.9923 7.97663C15.9058 8.16149 15.8083 8.33831 15.6002 8.41214C15.3472 8.5019 15.117 8.45921 14.9233 8.27052C14.7678 8.11895 14.6196 7.95989 14.4313 7.8162C14.4313 7.86998 14.4313 7.92371 14.4313 7.97749C14.4313 8.65792 14.434 9.33839 14.4303 10.0188C14.4279 10.4376 14.1101 10.7153 13.7078 10.6601C13.4029 10.6183 13.1859 10.3593 13.1836 10.0225C13.1801 9.51872 13.1826 9.01483 13.1826 8.51103C13.1826 7.89811 13.1808 7.2852 13.1844 6.67228C13.185 6.57269 13.1602 6.49983 13.0871 6.42662C11.5632 4.89952 10.0422 3.36945 8.52036 1.84028C8.20278 1.52118 7.85577 1.52071 7.53718 1.83805C5.99759 3.3716 4.45741 4.90455 2.92169 6.44196C2.86436 6.49932 2.82217 6.60075 2.82194 6.6818C2.81655 8.81659 2.8171 10.9514 2.81804 13.0862C2.81831 13.7413 3.17296 14.215 3.78053 14.3738C3.85511 14.3933 3.93433 14.4025 4.01152 14.4033C4.51088 14.4083 5.01027 14.4097 5.50963 14.4122C5.56133 14.4125 5.61304 14.4123 5.68988 14.4123C5.68988 14.3435 5.68988 14.2839 5.68988 14.2244C5.68988 12.6298 5.68976 11.0352 5.68996 9.44055C5.69004 8.95165 5.92727 8.71009 6.41425 8.70939C7.49129 8.70783 8.56832 8.70795 9.64535 8.70935C10.1341 8.70998 10.3726 8.95064 10.3727 9.43751C10.3729 11.0269 10.3728 12.6164 10.3728 14.2058C10.3728 14.2672 10.3728 14.3286 10.3728 14.3892C10.3978 14.399 10.4115 14.409 10.4252 14.4089C10.9713 14.406 11.5179 14.4165 12.0633 14.3943C12.5982 14.3725 13.0746 13.9163 13.1573 13.3838C13.1708 13.2967 13.1766 13.2084 13.1853 13.1206C13.2192 12.7806 13.4924 12.5362 13.8267 12.5471C14.1675 12.5583 14.4258 12.827 14.4308 13.1756C14.4491 14.4521 13.3794 15.5995 12.1016 15.644C11.3325 15.6708 10.5618 15.661 9.79189 15.6567C9.36411 15.6544 9.12457 15.3973 9.12434 14.9652C9.12352 13.3654 9.12403 11.7655 9.12399 10.1657C9.12399 10.1041 9.12399 10.0425 9.12399 9.96847C8.39408 9.96847 7.67501 9.96847 6.93862 9.96847C6.93862 10.0325 6.93862 10.0934 6.93862 10.1544C6.93862 11.7438 6.93874 13.3333 6.93854 14.9227C6.93851 15.4212 6.70319 15.6594 6.20399 15.6587C5.44442 15.6577 4.68411 15.673 3.92547 15.6449C2.64914 15.5977 1.60524 14.5401 1.57581 13.2647C1.55415 12.325 1.56945 11.3845 1.56891 10.4443C1.56844 9.57202 1.56879 8.69971 1.56879 7.78424C1.39255 7.95926 1.2413 8.1108 1.08855 8.26081C0.890973 8.45487 0.659247 8.50432 0.399734 8.41148C0.192554 8.33741 0.0925735 8.16285 0.0078125 7.97659C0.0078125 7.88309 0.0078125 7.78959 0.0078125 7.69608C0.128047 7.53718 0.231383 7.36149 0.370973 7.2219C2.45886 5.13386 4.5515 3.05054 6.64313 0.96621C7.45948 0.152669 8.6043 0.154932 9.41745 0.972103C11.4929 3.05784 13.5692 5.14276 15.6409 7.2322C15.7763 7.36875 15.8759 7.54065 15.9922 7.69612C15.9923 7.78963 15.9923 7.88313 15.9923 7.97663Z" fill="white"/>
</g>
<defs>
<clipPath id="clip0_1888_3250">
<rect width="16" height="16" fill="white"/>
</clipPath>
</defs>
</svg>
