<svg width="16" height="16" viewBox="0 0 16 16" fill="none" xmlns="http://www.w3.org/2000/svg">
<g clip-path="url(#clip0_1888_3258)">
<path d="M16 7.59292C16 8.18673 16 8.78051 16 9.37432C15.9944 9.38314 15.9873 9.39129 15.9835 9.40082C15.8436 9.75201 15.5778 9.92457 15.2673 9.86539C14.9396 9.80292 14.7503 9.54885 14.7501 9.1697C14.7498 8.76348 14.7506 8.35726 14.7498 7.95107C14.7484 7.14976 14.2204 6.62426 13.4158 6.6242C9.80716 6.62395 6.19844 6.62395 2.58975 6.62417C1.77612 6.62423 1.25047 7.14879 1.25012 7.96089C1.24966 9.05973 1.25 10.1586 1.25 11.2574C1.25 11.313 1.25 11.3686 1.25 11.4265C2.30013 11.4265 3.33284 11.4265 4.37503 11.4265C4.37503 10.922 4.37244 10.428 4.37559 9.93398C4.38137 9.0246 5.05972 8.34576 5.96906 8.34376C7.30216 8.34082 8.63525 8.34079 9.96831 8.34376C10.8782 8.34579 11.5558 9.02404 11.5619 9.93385C11.5649 10.3765 11.5624 10.8192 11.5624 11.2619C11.5624 11.317 11.5624 11.3721 11.5624 11.437C11.6392 11.437 11.6958 11.437 11.7523 11.437C12.9083 11.437 14.0645 11.445 15.2204 11.4325C15.6084 11.4283 15.8735 11.5623 15.9999 11.937C15.9999 12.76 15.9999 13.583 15.9999 14.406C15.8728 14.7802 15.6074 14.9177 15.2197 14.9103C14.4543 14.8958 13.6885 14.9071 12.9229 14.9056C12.509 14.9047 12.2514 14.6458 12.2503 14.232C12.249 13.7737 12.25 13.3153 12.25 12.8569C12.25 12.8023 12.25 12.7477 12.25 12.6957C9.40494 12.6957 6.58412 12.6957 3.74997 12.6957C3.74997 13.2082 3.75059 13.7122 3.74978 14.2162C3.74906 14.6508 3.49572 14.9052 3.06144 14.9058C2.30103 14.9068 1.54044 14.8958 0.780313 14.9103C0.392688 14.9178 0.12675 14.7808 0 14.406C0 12.135 0 9.86395 0 7.59292C0.04625 7.41285 0.0821875 7.22939 0.140781 7.05345C0.274813 6.6512 0.511031 6.31176 0.813094 6.02895C0.651219 5.87567 0.480156 5.74339 0.347656 5.57989C0.212094 5.4126 0.114312 5.2147 0 5.0302C0 4.94685 0 4.86351 0 4.78017C0.0934687 4.50895 0.26175 4.31482 0.561 4.28476C0.86775 4.25395 1.05891 4.42289 1.22172 4.66807C1.32066 4.81707 1.47694 4.92804 1.62488 5.07314C1.66881 4.96264 1.69428 4.90039 1.71844 4.8376C1.95744 4.21657 2.18413 3.59045 2.43806 2.9756C2.76166 2.1921 3.34584 1.68992 4.17228 1.49651C5.06078 1.28857 5.96616 1.18464 6.87588 1.12882C8.41534 1.03435 9.94253 1.13445 11.4632 1.40007C12.5514 1.59014 13.292 2.16026 13.6643 3.21035C13.8639 3.7736 14.0931 4.32642 14.3094 4.88376C14.3273 4.92967 14.3487 4.97417 14.3912 5.0712C14.5641 4.87998 14.7249 4.72654 14.8567 4.55126C15.1513 4.15935 15.7298 4.2006 15.9382 4.63789C15.9604 4.68454 15.9795 4.73273 16 4.7802C16 4.86354 16 4.94689 16 5.03023C15.8333 5.4446 15.5255 5.74101 15.1703 6.00714C15.2113 6.05001 15.2458 6.08689 15.2811 6.12295C15.601 6.44948 15.8152 6.83539 15.928 7.27773C15.9546 7.3821 15.9761 7.48782 16 7.59292ZM13.1446 5.36923C13.137 5.33835 13.1336 5.31314 13.1247 5.29004C12.8852 4.66951 12.6525 4.04623 12.4027 3.42985C12.2389 3.02576 11.9266 2.7791 11.5005 2.68826C10.5054 2.4761 9.49728 2.37073 8.48119 2.34779C7.1765 2.31832 5.88366 2.42907 4.60125 2.67826C4.08366 2.77882 3.73656 3.05198 3.55219 3.54485C3.34097 4.10942 3.12128 4.67076 2.90588 5.23376C2.89003 5.27514 2.87913 5.31842 2.86331 5.36923C6.29816 5.36923 9.71697 5.36923 13.1446 5.36923ZM10.3117 11.431C10.3117 10.9102 10.3157 10.4055 10.3096 9.90104C10.3073 9.7057 10.1698 9.59382 9.95284 9.59367C8.63028 9.5927 7.30772 9.59257 5.98516 9.59373C5.74178 9.59395 5.62681 9.71395 5.62534 9.96279C5.62384 10.2179 5.625 10.4731 5.625 10.7283C5.625 10.9608 5.625 11.1933 5.625 11.4258C5.89544 11.4258 6.14706 11.4258 6.40628 11.4258C6.40628 11.238 6.40538 11.0614 6.40647 10.8849C6.40888 10.5007 6.66675 10.2225 7.02309 10.2185C7.38741 10.2144 7.65322 10.4934 7.656 10.8844C7.65728 11.0647 7.65622 11.2452 7.65622 11.4259C7.8745 11.4259 8.07403 11.4259 8.28128 11.4259C8.28128 11.2382 8.28037 11.0616 8.28147 10.8851C8.28387 10.5008 8.54159 10.2227 8.89794 10.2185C9.26228 10.2143 9.52822 10.4933 9.53103 10.8842C9.53231 11.0646 9.53125 11.245 9.53125 11.4311C9.79753 11.431 10.0454 11.431 10.3117 11.431ZM2.49306 12.6982C2.073 12.6982 1.66559 12.6982 1.26253 12.6982C1.26253 13.0233 1.26253 13.3371 1.26253 13.6477C1.67881 13.6477 2.08256 13.6477 2.49306 13.6477C2.49306 13.3294 2.49306 13.0193 2.49306 12.6982ZM14.7442 12.6994C14.3206 12.6994 13.9132 12.6994 13.5082 12.6994C13.5082 13.0217 13.5082 13.3318 13.5082 13.6465C13.9237 13.6465 14.3311 13.6465 14.7442 13.6465C14.7442 13.327 14.7442 13.0169 14.7442 12.6994Z" fill="#303030" fill-opacity="0.52"/>
<path d="M2.81532 8.65611C2.92445 8.65599 3.0337 8.6527 3.1427 8.65658C3.48554 8.66886 3.75114 8.94408 3.74992 9.28271C3.74873 9.61421 3.48801 9.89089 3.15339 9.90311C2.92504 9.91146 2.69582 9.91211 2.46754 9.90283C2.13348 9.88924 1.87482 9.60989 1.87598 9.27792C1.87711 8.94574 2.13811 8.67214 2.47239 8.65708C2.58648 8.65192 2.70098 8.65624 2.81532 8.65611Z" fill="#303030" fill-opacity="0.52"/>
<path d="M13.1828 8.65627C13.2971 8.65614 13.4117 8.65196 13.5258 8.65696C13.8603 8.67158 14.122 8.94436 14.1239 9.27614C14.1258 9.60805 13.8676 9.88883 13.5339 9.90261C13.3005 9.91224 13.0659 9.91314 12.8325 9.90196C12.4995 9.88599 12.2448 9.60152 12.2501 9.26883C12.2553 8.94368 12.5129 8.67433 12.8399 8.65736C12.9539 8.65139 13.0685 8.65636 13.1828 8.65627Z" fill="#303030" fill-opacity="0.52"/>
</g>
<defs>
<clipPath id="clip0_1888_3258">
<rect width="16" height="16" fill="white"/>
</clipPath>
</defs>
</svg>
