<svg width="18" height="18" viewBox="0 0 18 18" fill="none" xmlns="http://www.w3.org/2000/svg">
<path d="M4.20254 17.4293C4.02877 17.3856 3.85189 17.3516 3.68177 17.2965C2.61353 16.9507 1.87404 15.9513 1.87171 14.8263C1.86622 12.143 1.86513 9.45962 1.8718 6.77635C1.87531 5.3583 3.01708 4.18685 4.43109 4.16942C6.00267 4.15002 7.57464 4.16345 9.14643 4.16534C9.40366 4.16565 9.628 4.26078 9.81081 4.44381C10.9731 5.60732 12.1348 6.77148 13.2964 7.93577C13.4391 8.07889 13.5034 8.25244 13.503 8.45527C13.5013 9.47042 13.5037 10.4856 13.5016 11.5008C13.5007 11.902 13.2194 12.1943 12.8437 12.1938C12.473 12.1933 12.1898 11.8951 12.1886 11.4956C12.1863 10.7548 12.1879 10.0141 12.1878 9.27326C12.1878 9.21351 12.1878 9.15376 12.1878 9.07008C11.89 9.07008 11.6013 9.08281 11.3142 9.06635C11.0482 9.05107 10.7757 9.03557 10.5204 8.96651C9.39255 8.66139 8.61548 7.6335 8.60617 6.46258C8.60362 6.14455 8.60578 5.82648 8.60578 5.48105C8.54067 5.48105 8.48329 5.48105 8.42595 5.48105C7.14439 5.48105 5.86288 5.48026 4.58133 5.48136C3.7402 5.48206 3.18444 6.04125 3.18426 6.8869C3.18369 9.49339 3.18369 12.0999 3.18426 14.7064C3.18444 15.5614 3.73787 16.112 4.59595 16.1122C6.65519 16.1125 8.71439 16.1125 10.7736 16.1122C11.6077 16.112 12.1396 15.6085 12.1885 14.7741C12.2099 14.4091 12.4985 14.1332 12.854 14.1377C13.2152 14.1423 13.4966 14.4337 13.5019 14.8087C13.5195 16.0601 12.5413 17.2054 11.2926 17.3963C11.2509 17.4026 11.2105 17.4181 11.1695 17.4293C8.84711 17.4293 6.52484 17.4293 4.20254 17.4293ZM9.92781 6.46166C9.9063 7.15018 10.6079 7.84371 11.197 7.73219C10.7797 7.31446 10.3563 6.89054 9.92781 6.46166Z" fill="#303030" fill-opacity="0.52"/>
<path d="M13.7984 0.57074C13.9145 0.597432 14.0313 0.621623 14.1466 0.651257C15.3094 0.949881 16.1273 1.98694 16.1295 3.19141C16.1347 5.95726 16.1317 8.72311 16.1308 11.489C16.1307 11.902 15.8505 12.1965 15.4681 12.1937C15.0869 12.191 14.8173 11.8964 14.8172 11.4779C14.8167 8.73953 14.8176 6.00112 14.8164 3.2627C14.8161 2.54749 14.3706 2.01381 13.6847 1.90234C13.5989 1.88838 13.5101 1.88847 13.4228 1.88843C11.3469 1.88773 9.27114 1.88944 7.1953 1.88676C6.68353 1.8861 6.28849 2.08814 6.0051 2.51786C5.78317 2.85437 5.39007 2.94064 5.07595 2.73219C4.76424 2.52536 4.69238 2.12853 4.91277 1.78978C5.34608 1.12373 5.95453 0.724749 6.74029 0.600418C6.77146 0.5955 6.80114 0.580882 6.83148 0.570784C9.15378 0.57074 11.476 0.57074 13.7984 0.57074Z" fill="#303030" fill-opacity="0.52"/>
<path d="M7.71596 10.4082C8.43258 10.4084 9.14929 10.4023 9.86582 10.4106C10.3403 10.4161 10.6496 10.8813 10.471 11.3097C10.3585 11.5795 10.1432 11.7215 9.85497 11.7223C8.43267 11.7267 7.01031 11.7276 5.58801 11.7223C5.19706 11.7208 4.91889 11.4316 4.92091 11.0584C4.92293 10.6862 5.20386 10.4113 5.59885 10.409C6.30458 10.405 7.01027 10.4079 7.71596 10.4082Z" fill="#303030" fill-opacity="0.52"/>
<path d="M7.70802 14.3696C7.01317 14.3696 6.31833 14.3705 5.62348 14.3692C5.20773 14.3685 4.92069 14.097 4.92188 13.7097C4.92306 13.3311 5.20953 13.0541 5.61369 13.0535C7.0198 13.0512 8.42591 13.051 9.83202 13.0537C10.2336 13.0544 10.5187 13.3363 10.5172 13.7163C10.5158 14.096 10.2296 14.3681 9.82539 14.3691C9.11957 14.3708 8.41379 14.3696 7.70802 14.3696Z" fill="#303030" fill-opacity="0.52"/>
<path d="M6.179 9.06985C5.98227 9.06985 5.78555 9.072 5.58886 9.06937C5.22215 9.0645 4.9399 8.80459 4.92282 8.4593C4.90438 8.08675 5.15735 7.77644 5.53131 7.76024C5.96761 7.74137 6.40593 7.74189 6.84228 7.7602C7.20728 7.77548 7.46947 8.08688 7.45489 8.44253C7.44036 8.79845 7.15781 9.06441 6.78556 9.06937C6.58339 9.07205 6.38117 9.06985 6.179 9.06985Z" fill="#303030" fill-opacity="0.52"/>
</svg>
