<svg width="18" height="18" viewBox="0 0 18 18" fill="none" xmlns="http://www.w3.org/2000/svg">
<path d="M4.20254 17.4293C4.02877 17.3855 3.85189 17.3516 3.68177 17.2965C2.61353 16.9507 1.87404 15.9513 1.87171 14.8263C1.86622 12.143 1.86513 9.45961 1.8718 6.77634C1.87531 5.35829 3.01708 4.18684 4.43109 4.16941C6.00267 4.15 7.57464 4.16344 9.14643 4.16533C9.40366 4.16563 9.628 4.26077 9.81081 4.4438C10.9731 5.6073 12.1348 6.77146 13.2964 7.93576C13.4391 8.07888 13.5034 8.25242 13.503 8.45525C13.5013 9.47041 13.5037 10.4856 13.5016 11.5008C13.5007 11.9019 13.2194 12.1943 12.8437 12.1938C12.473 12.1933 12.1898 11.8951 12.1886 11.4956C12.1863 10.7548 12.1879 10.0141 12.1878 9.27324C12.1878 9.21349 12.1878 9.15374 12.1878 9.07006C11.89 9.07006 11.6013 9.08279 11.3142 9.06633C11.0482 9.05105 10.7757 9.03555 10.5204 8.9665C9.39255 8.66137 8.61548 7.63349 8.60617 6.46256C8.60362 6.14454 8.60578 5.82646 8.60578 5.48104C8.54067 5.48104 8.48329 5.48104 8.42595 5.48104C7.14439 5.48104 5.86288 5.48025 4.58133 5.48135C3.7402 5.48205 3.18444 6.04123 3.18426 6.88688C3.18369 9.49337 3.18369 12.0999 3.18426 14.7064C3.18444 15.5614 3.73787 16.112 4.59595 16.1121C6.65519 16.1125 8.71439 16.1125 10.7736 16.1121C11.6077 16.112 12.1396 15.6085 12.1885 14.774C12.2099 14.4091 12.4985 14.1332 12.854 14.1377C13.2152 14.1422 13.4966 14.4337 13.5019 14.8087C13.5195 16.0601 12.5413 17.2054 11.2926 17.3962C11.2509 17.4026 11.2105 17.4181 11.1695 17.4293C8.84711 17.4293 6.52484 17.4293 4.20254 17.4293ZM9.92781 6.46164C9.9063 7.15016 10.6079 7.84369 11.197 7.73218C10.7797 7.31445 10.3563 6.89053 9.92781 6.46164Z" fill="white"/>
<path d="M13.7984 0.570724C13.9145 0.597417 14.0313 0.621607 14.1466 0.651242C15.3094 0.949866 16.1273 1.98693 16.1295 3.19139C16.1347 5.95725 16.1317 8.7231 16.1308 11.489C16.1307 11.902 15.8505 12.1964 15.4681 12.1937C15.0869 12.191 14.8173 11.8964 14.8172 11.4779C14.8167 8.73952 14.8176 6.0011 14.8164 3.26269C14.8161 2.54748 14.3706 2.0138 13.6847 1.90233C13.5989 1.88837 13.5101 1.88846 13.4228 1.88841C11.3469 1.88771 9.27114 1.88942 7.1953 1.88674C6.68353 1.88609 6.28849 2.08812 6.0051 2.51784C5.78317 2.85435 5.39007 2.94062 5.07595 2.73217C4.76424 2.52535 4.69238 2.12851 4.91277 1.78976C5.34608 1.12372 5.95453 0.724734 6.74029 0.600402C6.77146 0.595485 6.80114 0.580866 6.83148 0.570769C9.15378 0.570725 11.476 0.570724 13.7984 0.570724Z" fill="white"/>
<path d="M7.71694 10.4082C8.43355 10.4084 9.15026 10.4023 9.86679 10.4106C10.3413 10.4161 10.6505 10.8813 10.472 11.3097C10.3595 11.5795 10.1442 11.7215 9.85595 11.7223C8.43364 11.7267 7.01129 11.7276 5.58898 11.7223C5.19803 11.7208 4.91987 11.4316 4.92189 11.0584C4.92391 10.6862 5.20484 10.4113 5.59983 10.409C6.30556 10.405 7.01125 10.4079 7.71694 10.4082Z" fill="white"/>
<path d="M7.70802 14.3696C7.01317 14.3696 6.31833 14.3705 5.62348 14.3692C5.20773 14.3685 4.92069 14.097 4.92188 13.7097C4.92306 13.3311 5.20953 13.0541 5.61369 13.0535C7.0198 13.0512 8.42591 13.051 9.83202 13.0536C10.2336 13.0544 10.5187 13.3363 10.5172 13.7163C10.5158 14.096 10.2296 14.3681 9.82539 14.3691C9.11957 14.3707 8.41379 14.3696 7.70802 14.3696Z" fill="white"/>
<path d="M6.179 9.06984C5.98227 9.06984 5.78555 9.07199 5.58886 9.06936C5.22215 9.06448 4.9399 8.80458 4.92282 8.45929C4.90438 8.08673 5.15735 7.77643 5.53131 7.76023C5.96761 7.74135 6.40593 7.74188 6.84228 7.76019C7.20728 7.77546 7.46947 8.08686 7.45489 8.44252C7.44036 8.79843 7.15781 9.06439 6.78556 9.06936C6.58339 9.07203 6.38117 9.06984 6.179 9.06984Z" fill="white"/>
</svg>
