<svg width="16" height="16" viewBox="0 0 16 16" fill="none" xmlns="http://www.w3.org/2000/svg">
<g clip-path="url(#clip0_1955_10)">
<path d="M9.49799 0.470581C9.71356 0.531052 9.94089 0.565444 10.1427 0.656503C11.0479 1.06509 11.5441 1.77615 11.574 2.76807C11.6025 3.71791 11.5831 4.66933 11.5798 5.62003C11.5785 5.97674 11.3193 6.23768 10.9853 6.23501C10.6494 6.23231 10.406 5.97321 10.4053 5.60991C10.4036 4.71313 10.4049 3.81631 10.4046 2.91948C10.4043 2.12838 9.92309 1.64717 9.13258 1.64713C7.19685 1.64701 5.26113 1.64693 3.32536 1.64717C2.55901 1.64725 2.07231 2.12764 2.07203 2.89117C2.07085 6.29709 2.07082 9.70297 2.07207 13.1089C2.07234 13.8722 2.55952 14.3528 3.32572 14.3529C5.26634 14.3531 7.20697 14.3531 9.1476 14.3529C9.91685 14.3528 10.404 13.8653 10.4045 13.0946C10.4051 12.1929 10.4031 11.2912 10.4054 10.3895C10.4065 9.95027 10.7786 9.66235 11.1729 9.79584C11.4208 9.87976 11.5738 10.0636 11.5748 10.3212C11.5789 11.3646 11.6054 12.4102 11.5506 13.4511C11.4962 14.4828 10.63 15.3488 9.60897 15.5003C9.57136 15.5059 9.53497 15.5195 9.49799 15.5294C7.32152 15.5294 5.14505 15.5294 2.96858 15.5294C2.72689 15.4557 2.46956 15.4137 2.24631 15.3029C1.34501 14.8557 0.896148 14.1141 0.895599 13.1083C0.893717 9.70266 0.894815 6.29701 0.895207 2.89137C0.895207 2.81301 0.897835 2.73454 0.902933 2.65639C0.969129 1.64031 1.68615 0.781169 2.67093 0.537954C2.76968 0.513562 2.86932 0.492934 2.96854 0.470581C5.14505 0.470581 7.32152 0.470581 9.49799 0.470581Z" fill="white"/>
<path d="M12.9039 7.41176C12.7758 7.30293 12.6791 7.22325 12.5851 7.1405C12.3185 6.90576 12.2817 6.55854 12.495 6.30286C12.7134 6.04113 13.0697 6.01403 13.3457 6.24521C13.8529 6.66999 14.359 7.09615 14.8617 7.52627C15.1876 7.80513 15.1864 8.19607 14.8591 8.47611C14.3563 8.90615 13.8504 9.33254 13.343 9.75713C13.0728 9.98317 12.7211 9.95819 12.5019 9.70521C12.2836 9.45329 12.3146 9.10023 12.5772 8.86654C12.6722 8.78199 12.7707 8.70137 12.9037 8.58827C12.8168 8.58827 12.7677 8.58827 12.7186 8.58827C11.4393 8.58827 10.1599 8.58944 8.88056 8.58756C8.44762 8.58693 8.16162 8.20368 8.29452 7.81039C8.37825 7.56266 8.59774 7.41242 8.88464 7.41219C9.92872 7.41129 10.9728 7.41184 12.0169 7.4118C12.2986 7.41176 12.5803 7.41176 12.9039 7.41176Z" fill="white"/>
</g>
<defs>
<clipPath id="clip0_1955_10">
<rect width="16" height="16" fill="white"/>
</clipPath>
</defs>
</svg>
