<svg width="16" height="16" viewBox="0 0 16 16" fill="none" xmlns="http://www.w3.org/2000/svg">
<g clip-path="url(#clip0_1888_3317)">
<path d="M15.9862 2.03122C15.9188 2.27536 15.8687 2.52593 15.7808 2.76248C15.4961 3.52926 14.9692 4.09813 14.2836 4.52615C14.1714 4.5962 14.1345 4.66551 14.1491 4.80053C14.2624 5.85098 14.3786 6.90137 14.4686 7.95395C14.5345 8.72446 14.2638 9.3873 13.7167 9.9302C12.726 10.9133 11.73 11.891 10.7345 12.8692C10.4642 13.1349 10.1278 13.1606 9.86267 12.9444C9.61982 12.7464 9.5614 12.3915 9.73499 12.1284C9.78311 12.0555 9.84743 11.9921 9.91011 11.9302C10.8255 11.0264 11.7303 10.1115 12.663 9.22601C13.106 8.80543 13.2857 8.33823 13.2057 7.7323C13.0981 6.91743 13.0331 6.09691 12.9493 5.2789C12.9456 5.24342 12.9361 5.20857 12.9288 5.17051C12.6062 5.2427 12.2903 5.32016 11.9715 5.38246C11.7319 5.42927 11.4893 5.46375 11.2465 5.49101C10.8571 5.53471 10.5427 5.29311 10.5129 4.93823C10.481 4.55887 10.7339 4.30682 11.1312 4.24141C11.6528 4.15555 12.1667 4.02378 12.6845 3.91457C12.7807 3.89431 12.8105 3.84568 12.7956 3.75053C12.7771 3.63241 12.765 3.51282 12.7589 3.39341C12.7536 3.28872 12.7044 3.25911 12.6032 3.24904C11.1945 3.10905 9.78663 2.96082 8.37765 2.82372C8.12125 2.79878 7.85897 2.7936 7.60291 2.81732C7.35394 2.84038 7.14493 2.97782 6.96711 3.15501C5.20005 4.9157 3.43067 6.67417 1.66735 8.43865C1.12984 8.9765 1.12332 9.72402 1.6586 10.2648C3.00316 11.6231 4.35673 12.9725 5.70948 14.3227C6.24347 14.8557 6.9998 14.8185 7.47171 14.3916C7.73329 14.1549 7.99758 14.125 8.24282 14.2622C8.60037 14.4622 8.68037 14.9427 8.38798 15.2363C7.83685 15.7897 7.16081 16.0258 6.38622 15.955C5.76087 15.8979 5.23695 15.6206 4.79425 15.176C3.46399 13.8401 2.12859 12.5094 0.797608 11.1742C-0.143945 10.2297 -0.246157 8.86937 0.544494 7.8251C0.632055 7.70943 0.734423 7.60389 0.837419 7.50111C2.5294 5.81258 4.23403 4.1365 5.9102 2.43241C6.63246 1.69813 7.46358 1.43053 8.47168 1.569C9.3374 1.68794 10.2104 1.75344 11.0802 1.84254C11.1592 1.85064 11.2228 1.85274 11.2743 1.76204C11.7004 1.01271 12.3728 0.568502 13.1604 0.28204C13.6249 0.113098 14.0979 -0.0197332 14.6047 -0.00414109C15.1339 0.0121413 15.5095 0.26651 15.7842 0.69302C15.8694 0.825443 15.9199 0.980298 15.9862 1.12486C15.9862 1.42701 15.9862 1.72913 15.9862 2.03122ZM13.9935 3.193C14.5316 2.72395 14.7573 2.14808 14.7574 1.47611C14.7574 1.30482 14.629 1.20364 14.4695 1.22789C14.0358 1.29384 13.6143 1.40621 13.2249 1.61082C13.0331 1.71166 12.8578 1.84414 12.6751 1.96232C12.6822 1.97641 12.6893 1.99049 12.6964 2.00455C12.8925 2.02435 13.0885 2.04665 13.2849 2.06344C13.6713 2.09644 13.881 2.28866 13.9351 2.67115C13.9583 2.83508 13.9723 3.00028 13.9935 3.193Z" fill="#303030" fill-opacity="0.52"/>
<path d="M5.67901 11.321C5.57946 11.4139 5.49146 11.5023 5.39694 11.583C5.13369 11.8079 4.76971 11.7948 4.53579 11.5557C4.2988 11.3134 4.29858 10.9405 4.53924 10.6828C4.61335 10.6034 4.69695 10.5329 4.75694 10.4765C4.64274 10.2488 4.5116 10.0507 4.44051 9.83308C4.25416 9.26264 4.40105 8.75606 4.80236 8.32121C5.02825 8.07644 5.39637 8.06085 5.6487 8.27393C5.90028 8.48638 5.94502 8.85131 5.7522 9.11779C5.55804 9.38609 5.56459 9.46392 5.80208 9.70157C5.97507 9.87465 6.1474 10.0484 6.32168 10.2201C6.58684 10.4814 6.86022 10.4986 7.08817 10.2703C7.32535 10.0328 7.31374 9.7512 7.05545 9.4893C6.92751 9.35958 6.79462 9.23443 6.6712 9.10053C6.02373 8.39798 6.03091 7.371 6.67728 6.66634C7.09366 6.21241 7.59399 5.96196 8.21589 6.03798C8.4637 6.06828 8.70335 6.16554 8.9964 6.24591C9.04243 6.19496 9.12111 6.09824 9.20967 6.01162C9.47176 5.75537 9.8413 5.7443 10.0937 5.98038C10.3514 6.22138 10.3578 6.59512 10.1069 6.87625C10.0274 6.96525 9.94282 7.04971 9.88842 7.10696C9.97162 7.37686 10.0743 7.61749 10.117 7.86831C10.1971 8.33959 10.0411 8.7523 9.71534 9.09708C9.47029 9.35647 9.10624 9.37316 8.84447 9.14835C8.59063 8.93034 8.56277 8.55628 8.77962 8.27829C8.92763 8.08855 8.92409 7.95889 8.75816 7.78389C8.64359 7.66304 8.52572 7.54496 8.40453 7.43076C8.16625 7.2062 7.89002 7.21909 7.64691 7.4616C7.39358 7.71437 7.36886 8.01608 7.58862 8.25165C7.73416 8.40767 7.89407 8.55048 8.03644 8.70916C9.0082 9.79239 8.37015 11.3501 7.09548 11.6413C6.66147 11.7405 6.24864 11.6577 5.86354 11.4366C5.80506 11.403 5.74903 11.365 5.67901 11.321Z" fill="#303030" fill-opacity="0.52"/>
</g>
<defs>
<clipPath id="clip0_1888_3317">
<rect width="16" height="16" fill="white"/>
</clipPath>
</defs>
</svg>
