<svg width="16" height="16" viewBox="0 0 16 16" fill="none" xmlns="http://www.w3.org/2000/svg">
<g clip-path="url(#clip0_1888_8489)">
<path d="M15.9852 2.03122C15.9178 2.27536 15.8677 2.52593 15.7798 2.76248C15.4952 3.52926 14.9682 4.09813 14.2827 4.52615C14.1704 4.5962 14.1335 4.66551 14.1481 4.80053C14.2614 5.85098 14.3776 6.90137 14.4677 7.95395C14.5335 8.72446 14.2629 9.3873 13.7158 9.9302C12.725 10.9133 11.729 11.891 10.7335 12.8692C10.4632 13.1349 10.1269 13.1606 9.8617 12.9444C9.61884 12.7464 9.56043 12.3915 9.73401 12.1284C9.78214 12.0555 9.84645 11.9921 9.90913 11.9302C10.8245 11.0264 11.7293 10.1115 12.662 9.22601C13.1051 8.80543 13.2848 8.33823 13.2047 7.7323C13.0971 6.91743 13.0321 6.09691 12.9483 5.2789C12.9446 5.24342 12.9351 5.20857 12.9278 5.17051C12.6052 5.2427 12.2894 5.32016 11.9705 5.38246C11.7309 5.42927 11.4883 5.46375 11.2456 5.49101C10.8561 5.53471 10.5418 5.29311 10.5119 4.93823C10.48 4.55887 10.7329 4.30682 11.1302 4.24141C11.6518 4.15555 12.1658 4.02378 12.6836 3.91457C12.7797 3.89431 12.8095 3.84568 12.7946 3.75053C12.7761 3.63241 12.764 3.51282 12.7579 3.39341C12.7526 3.28872 12.7035 3.25911 12.6022 3.24904C11.1935 3.10905 9.78565 2.96082 8.37668 2.82372C8.12027 2.79878 7.85799 2.7936 7.60193 2.81732C7.35296 2.84038 7.14396 2.97782 6.96614 3.15501C5.19908 4.9157 3.4297 6.67417 1.66637 8.43865C1.12887 8.9765 1.12234 9.72402 1.65762 10.2648C3.00218 11.6231 4.35575 12.9725 5.70851 14.3227C6.2425 14.8557 6.99883 14.8185 7.47073 14.3916C7.73232 14.1549 7.9966 14.125 8.24184 14.2622C8.59939 14.4622 8.67939 14.9427 8.387 15.2363C7.83588 15.7897 7.15983 16.0258 6.38524 15.955C5.75989 15.8979 5.23597 15.6206 4.79327 15.176C3.46302 13.8401 2.12761 12.5094 0.796631 11.1742C-0.144922 10.2297 -0.247133 8.86937 0.543517 7.8251C0.631078 7.70943 0.733447 7.60389 0.836443 7.50111C2.52843 5.81258 4.23305 4.1365 5.90923 2.43241C6.63149 1.69813 7.46261 1.43053 8.4707 1.569C9.33643 1.68794 10.2095 1.75344 11.0793 1.84254C11.1582 1.85064 11.2218 1.85274 11.2734 1.76204C11.6994 1.01271 12.3718 0.568502 13.1595 0.28204C13.624 0.113098 14.0969 -0.0197332 14.6038 -0.00414109C15.1329 0.0121413 15.5086 0.26651 15.7832 0.69302C15.8685 0.825443 15.9189 0.980298 15.9852 1.12486C15.9852 1.42701 15.9852 1.72913 15.9852 2.03122ZM13.9926 3.193C14.5306 2.72395 14.7563 2.14808 14.7564 1.47611C14.7564 1.30482 14.6281 1.20364 14.4685 1.22789C14.0348 1.29384 13.6134 1.40621 13.224 1.61082C13.0321 1.71166 12.8569 1.84414 12.6741 1.96232C12.6812 1.97641 12.6883 1.99049 12.6954 2.00455C12.8916 2.02435 13.0875 2.04665 13.2839 2.06344C13.6703 2.09644 13.88 2.28866 13.9341 2.67115C13.9573 2.83508 13.9713 3.00028 13.9926 3.193Z" fill="white"/>
<path d="M5.67803 11.321C5.57849 11.4139 5.49049 11.5023 5.39596 11.583C5.13271 11.8079 4.76873 11.7948 4.53482 11.5557C4.29783 11.3134 4.29761 10.9405 4.53827 10.6828C4.61237 10.6034 4.69598 10.5329 4.75596 10.4765C4.64176 10.2488 4.51063 10.0507 4.43954 9.83308C4.25318 9.26264 4.40007 8.75606 4.80139 8.32121C5.02727 8.07644 5.3954 8.06085 5.64773 8.27393C5.8993 8.48638 5.94404 8.85131 5.75122 9.11779C5.55706 9.38609 5.56362 9.46392 5.80111 9.70157C5.97409 9.87465 6.14642 10.0484 6.3207 10.2201C6.58586 10.4814 6.85924 10.4986 7.08719 10.2703C7.32437 10.0328 7.31276 9.7512 7.05447 9.4893C6.92653 9.35958 6.79364 9.23443 6.67022 9.10053C6.02275 8.39798 6.02994 7.371 6.67631 6.66634C7.09268 6.21241 7.59301 5.96196 8.21491 6.03798C8.46272 6.06828 8.70238 6.16554 8.99543 6.24591C9.04145 6.19496 9.12013 6.09824 9.2087 6.01162C9.47078 5.75537 9.84032 5.7443 10.0927 5.98038C10.3504 6.22138 10.3568 6.59512 10.1059 6.87625C10.0264 6.96525 9.94184 7.04971 9.88744 7.10696C9.97064 7.37686 10.0734 7.61749 10.116 7.86831C10.1961 8.33959 10.0401 8.7523 9.71436 9.09708C9.46931 9.35647 9.10526 9.37316 8.84349 9.14835C8.58966 8.93034 8.5618 8.55628 8.77864 8.27829C8.92666 8.08855 8.92311 7.95889 8.75718 7.78389C8.64261 7.66304 8.52474 7.54496 8.40355 7.43076C8.16528 7.2062 7.88904 7.21909 7.64594 7.4616C7.3926 7.71437 7.36788 8.01608 7.58765 8.25165C7.73318 8.40767 7.89309 8.55048 8.03546 8.70916C9.00722 9.79239 8.36917 11.3501 7.0945 11.6413C6.66049 11.7405 6.24766 11.6577 5.86257 11.4366C5.80409 11.403 5.74806 11.365 5.67803 11.321Z" fill="white"/>
</g>
<defs>
<clipPath id="clip0_1888_8489">
<rect width="16" height="16" fill="white"/>
</clipPath>
</defs>
</svg>
