<svg width="16" height="16" viewBox="0 0 16 16" fill="none" xmlns="http://www.w3.org/2000/svg">
<g clip-path="url(#clip0_1888_3580)">
<path d="M6.6254 16C6.25137 15.8735 6.11424 15.6089 6.12099 15.221C6.1354 14.3935 6.1219 13.5656 6.1269 12.7379C6.12937 12.332 5.96493 12.0326 5.61809 11.8189C4.8949 11.3734 4.53446 10.719 4.53218 9.87009C4.52987 9.01112 4.54734 8.15181 4.5283 7.29325C4.49209 5.66037 5.48521 4.78218 6.71627 4.49428C7.77533 4.24659 8.82849 4.26134 9.8398 4.69312C10.8756 5.13537 11.4088 5.94912 11.4325 7.07181C11.4529 8.03969 11.4496 9.0085 11.4333 9.97653C11.4204 10.7417 11.0825 11.3558 10.4382 11.7685C10.0416 12.0226 9.86171 12.3474 9.87102 12.8159C9.88693 13.6173 9.8653 14.4194 9.87977 15.2209C9.88677 15.6087 9.74912 15.8732 9.37543 16C9.29209 16 9.20877 16 9.12543 16C8.75146 15.8735 8.61433 15.609 8.62102 15.2211C8.6354 14.3885 8.62524 13.5554 8.62549 12.7226C8.62574 11.8742 8.98012 11.2183 9.69909 10.7661C10.0271 10.5597 10.1893 10.2704 10.1885 9.88372C10.1867 8.97797 10.1897 8.07222 10.1873 7.1665C10.1856 6.4739 9.8664 6.0095 9.21015 5.78293C8.47699 5.52984 7.72596 5.52562 6.9803 5.71481C6.13233 5.92993 5.78177 6.40403 5.78171 7.278C5.78165 8.13168 5.78624 8.9854 5.77974 9.83906C5.77662 10.2514 5.94121 10.5542 6.29312 10.7716C7.01587 11.2179 7.37312 11.8741 7.37502 12.7225C7.37693 13.5554 7.36555 14.3884 7.3798 15.221C7.38646 15.6088 7.24905 15.8733 6.87543 16.0001C6.79205 16 6.70874 16 6.6254 16Z" fill="white"/>
<path d="M0 7.71875C0.025 7.60853 0.04725 7.49759 0.0754375 7.38819C0.285344 6.5735 0.8315 6.08309 1.60431 5.81903C2.08209 5.65578 2.57884 5.60497 3.08081 5.61437C3.41572 5.62066 3.67438 5.88366 3.68666 6.20872C3.69928 6.54266 3.45666 6.81653 3.11628 6.85409C2.78634 6.8905 2.45472 6.91703 2.12753 6.9705C1.98788 6.99331 1.85044 7.06059 1.72444 7.13022C1.41681 7.30019 1.25597 7.57247 1.25362 7.92153C1.24734 8.85309 1.24775 9.78475 1.25303 10.7163C1.25463 10.9958 1.37181 11.2355 1.59278 11.4078C2.23653 11.9098 2.52291 12.5677 2.50297 13.3789C2.48788 13.9927 2.4885 14.6074 2.50416 15.2211C2.51406 15.609 2.37353 15.8732 2 16C1.91666 16 1.83334 16 1.75 16C1.376 15.8735 1.23628 15.609 1.24575 15.221C1.26137 14.5811 1.24325 13.9404 1.25253 13.3002C1.258 12.9229 1.12594 12.6281 0.825687 12.3953C0.448094 12.1025 0.203719 11.7148 0.0762813 11.2544C0.0473438 11.1497 0.02525 11.0432 0 10.9375C0 9.86459 0 8.79166 0 7.71875Z" fill="white"/>
<path d="M14.0009 16C13.627 15.8735 13.4875 15.6092 13.4966 15.2212C13.5121 14.5606 13.5006 13.8993 13.5009 13.2383C13.5013 12.5107 13.7811 11.9143 14.3498 11.4601C14.6215 11.2431 14.7536 10.97 14.7521 10.6225C14.7484 9.76375 14.7518 8.90494 14.7505 8.04616C14.7496 7.49206 14.5262 7.15572 13.9913 7.00838C13.6647 6.91838 13.3174 6.89463 12.9773 6.86456C12.6322 6.83406 12.3964 6.66725 12.327 6.3636C12.2517 6.03369 12.4778 5.64957 12.8117 5.63119C13.6865 5.58303 14.5284 5.70578 15.2388 6.28106C15.6579 6.62044 15.8828 7.07472 15.9692 7.60216C15.9756 7.64169 15.9901 7.67994 16.0009 7.71878C16.0009 8.79169 16.0009 9.86463 16.0009 10.9375C15.9927 10.9565 15.98 10.9748 15.977 10.9946C15.8864 11.5951 15.5923 12.0735 15.1163 12.4467C14.8668 12.6423 14.7502 12.9052 14.7506 13.2219C14.7515 13.8883 14.7398 14.5549 14.7551 15.2209C14.764 15.6088 14.6245 15.8732 14.2509 16C14.1675 16 14.0842 16 14.0009 16Z" fill="white"/>
<path d="M8.25033 0C8.55086 0.0804688 8.84571 0.169781 9.10243 0.35925C9.79074 0.867219 10.0539 1.75628 9.74564 2.55688C9.44983 3.32525 8.63936 3.82709 7.82874 3.74384C6.96968 3.65563 6.28468 3.01178 6.15046 2.16644C5.99218 1.1695 6.64896 0.234969 7.64971 0.0321565C7.68402 0.025219 7.7168 0.010875 7.7503 0C7.91699 0 8.08368 0 8.25033 0ZM8.00649 1.25037C7.6628 1.24725 7.37893 1.5255 7.37583 1.86853C7.37274 2.21209 7.65121 2.49638 7.99389 2.4995C8.33711 2.50263 8.62168 2.22369 8.62474 1.88113C8.6278 1.53747 8.34943 1.25347 8.00649 1.25037Z" fill="white"/>
<path d="M4.25077 16C3.87662 15.8734 3.73762 15.6088 3.74649 15.2207C3.76193 14.5441 3.74862 13.8669 3.75202 13.19C3.75355 12.8863 3.94593 12.6509 4.23658 12.5794C4.50399 12.5137 4.79858 12.639 4.92058 12.8924C4.97046 12.9961 4.99608 13.1211 4.99733 13.2368C5.0044 13.898 4.98962 14.5596 5.00502 15.2206C5.01405 15.6085 4.87465 15.8732 4.50077 16C4.41743 16 4.33412 16 4.25077 16Z" fill="white"/>
<path d="M11.5008 16C11.1266 15.8734 10.9876 15.6088 10.9965 15.2207C11.012 14.5441 10.9986 13.8669 11.002 13.19C11.0036 12.8863 11.1959 12.6509 11.4866 12.5794C11.754 12.5137 12.0486 12.639 12.1706 12.8924C12.2205 12.9961 12.2461 13.1211 12.2473 13.2368C12.2544 13.898 12.2396 14.5596 12.255 15.2206C12.2641 15.6085 12.1246 15.8732 11.7508 16C11.6674 16 11.5841 16 11.5008 16Z" fill="white"/>
<path d="M4.99967 3.13778C4.99483 4.16715 4.14264 5.00591 3.10789 4.99978C2.07945 4.99369 1.24286 4.14003 1.25005 3.10406C1.25714 2.08284 2.10645 1.24694 3.13373 1.25012C4.16402 1.25331 5.00455 2.10362 4.99967 3.13778ZM3.12736 3.7495C3.47023 3.74812 3.75061 3.46528 3.7492 3.12215C3.74783 2.77894 3.46548 2.49906 3.12198 2.50037C2.7787 2.50169 2.49905 2.78381 2.5003 3.12753C2.50158 3.4704 2.78433 3.75087 3.12736 3.7495Z" fill="white"/>
<path d="M12.873 1.25012C13.9053 1.24943 14.7506 2.09475 14.7497 3.127C14.7489 4.15831 13.9015 5.00197 12.8687 4.99984C11.8449 4.99772 11.0019 4.15447 11 3.13047C10.9981 2.0975 11.8415 1.25081 12.873 1.25012ZM12.8742 3.7495C13.217 3.74978 13.499 3.46819 13.4993 3.12544C13.4995 2.78215 13.2186 2.50069 12.8753 2.50037C12.5318 2.50006 12.2507 2.78069 12.2504 3.12425C12.25 3.4675 12.5311 3.74922 12.8742 3.7495Z" fill="white"/>
</g>
<defs>
<clipPath id="clip0_1888_3580">
<rect width="16" height="16" fill="white"/>
</clipPath>
</defs>
</svg>
