<svg width="16" height="16" viewBox="0 0 16 16" fill="none" xmlns="http://www.w3.org/2000/svg">
<g clip-path="url(#clip0_1888_3291)">
<path d="M11.75 16C11.4539 15.9263 11.1512 15.8721 10.863 15.7748C10.3825 15.6125 9.97208 15.3287 9.61379 14.9704C6.74879 12.1056 3.88317 9.24142 1.01967 6.37512C0.456458 5.81133 0.123667 5.13129 0.0269585 4.338C0.0232918 4.30804 0.00920833 4.27933 0 4.25C0 4.03125 0 3.8125 0 3.59375C0.009625 3.55917 0.0237501 3.52512 0.0281668 3.48987C0.112833 2.81796 0.359833 2.21129 0.809292 1.70542C1.14687 1.32546 1.51354 0.970125 1.88129 0.618583C2.16762 0.344875 2.51925 0.176166 2.90283 0.0777912C3.01763 0.0483329 3.13421 0.02575 3.24996 0C3.43746 0 3.62496 0 3.81246 0C3.91758 0.0243333 4.02329 0.0464581 4.12775 0.0733331C4.57075 0.187208 4.95788 0.401291 5.28238 0.725083C5.76892 1.21058 6.25938 1.69225 6.73958 2.184C7.72708 3.19525 7.71771 4.72479 6.72333 5.733C6.68329 5.77358 6.63442 5.80546 6.5505 5.87283C6.64463 5.94613 6.72083 5.99388 6.78308 6.05571C7.31504 6.58417 7.84792 7.11179 8.37342 7.64662C8.72233 8.00175 8.58521 8.56308 8.12154 8.69842C7.89442 8.76471 7.68304 8.71846 7.51463 8.55117C6.76092 7.80263 6.00825 7.053 5.26175 6.29729C5.01425 6.04675 5.02342 5.6825 5.26808 5.42542C5.44754 5.23687 5.63638 5.05729 5.81883 4.87158C6.36133 4.31954 6.36004 3.57367 5.81358 3.02279C5.35883 2.56437 4.90258 2.10746 4.44387 1.65304C3.89412 1.10846 3.14771 1.112 2.59613 1.65871C2.37421 1.87867 2.15329 2.09958 1.93333 2.32146C1.01771 3.24492 1.01396 4.59717 1.93258 5.51867C3.60162 7.19292 5.27517 8.86271 6.94683 10.5344C8.11404 11.7016 9.28113 12.8689 10.4486 14.0359C11.404 14.991 12.7454 14.994 13.7022 14.0435C13.9202 13.8269 14.1386 13.6109 14.3538 13.3916C14.8843 12.8507 14.8866 12.1029 14.3561 11.5657C13.8988 11.1026 13.4389 10.6419 12.9752 10.1852C12.4345 9.65271 11.6777 9.65171 11.1317 10.1788C10.9519 10.3524 10.7793 10.5333 10.6004 10.708C10.3287 10.9733 9.94246 10.9819 9.69288 10.7315C9.43913 10.4768 9.44871 10.0972 9.71771 9.82508C9.90808 9.63254 10.0983 9.43979 10.2928 9.25142C11.2717 8.303 12.8093 8.29329 13.7915 9.23904C14.3053 9.73371 14.8056 10.2427 15.3053 10.7517C15.6735 11.1267 15.89 11.5815 15.9707 12.101C15.9768 12.1408 15.9901 12.1795 16 12.2187C16 12.3958 16 12.5729 16 12.75C15.9913 12.7739 15.9778 12.7972 15.9744 12.8219C15.8957 13.3935 15.6423 13.8759 15.2343 14.2805C14.9945 14.5185 14.758 14.7598 14.517 14.9966C14.0783 15.4276 13.5645 15.7302 12.9663 15.8813C12.7815 15.9279 12.5931 15.9608 12.4063 16C12.1875 16 11.9688 16 11.75 16Z" fill="#303030" fill-opacity="0.52"/>
<path d="M12.4679 4.42729C12.4025 4.48842 12.3613 4.52471 12.3225 4.56346C11.8217 5.06367 11.3207 5.56367 10.821 6.06496C10.6558 6.23062 10.4618 6.31575 10.2282 6.26854C9.99066 6.22058 9.82583 6.07767 9.75112 5.84492C9.67191 5.59821 9.73654 5.38158 9.91595 5.20087C10.378 4.73558 10.8423 4.27246 11.3069 3.80958C11.3897 3.72704 11.4779 3.64987 11.5636 3.57025C11.5559 3.55762 11.5482 3.54496 11.5405 3.53233C11.324 3.53233 11.1075 3.53325 10.8911 3.53212C10.4989 3.53008 10.2188 3.26742 10.2205 2.90471C10.2221 2.54375 10.504 2.28329 10.8976 2.28271C11.6106 2.28163 12.3236 2.28167 13.0366 2.28267C13.459 2.28329 13.7169 2.54087 13.7177 2.96383C13.719 3.67683 13.719 4.38987 13.7176 5.10287C13.7169 5.49612 13.4553 5.77821 13.0947 5.77979C12.7325 5.78137 12.47 5.50058 12.4681 5.10829C12.4671 4.89212 12.4679 4.67596 12.4679 4.42729Z" fill="#303030" fill-opacity="0.52"/>
</g>
<defs>
<clipPath id="clip0_1888_3291">
<rect width="16" height="16" fill="white"/>
</clipPath>
</defs>
</svg>
