<svg width="16" height="16" viewBox="0 0 16 16" fill="none" xmlns="http://www.w3.org/2000/svg">
<g clip-path="url(#clip0_1888_7563)">
<path d="M11.7407 16C11.4646 15.9337 11.1824 15.8859 10.9137 15.7971C10.4127 15.6315 9.98217 15.3438 9.60909 14.97C6.75367 12.1088 3.89776 9.248 1.04284 6.38629C0.476588 5.81871 0.136338 5.13846 0.0404218 4.33867C0.0367968 4.30846 0.0227969 4.2795 0.0136719 4.25C0.0136719 4.03125 0.0136719 3.8125 0.0136719 3.59375C0.0232969 3.55913 0.037505 3.52508 0.04188 3.48979C0.12663 2.80617 0.38538 2.19546 0.841838 1.68183C1.1483 1.33704 1.48159 1.01567 1.81063 0.691708C2.11992 0.387208 2.49117 0.186 2.91134 0.0777912C3.02575 0.0483329 3.14196 0.02575 3.25734 0C3.44446 0 3.63159 0 3.81875 0C4.04667 0.0652917 4.28013 0.115791 4.50113 0.1995C4.81067 0.316708 5.07438 0.511458 5.30826 0.746833C5.77034 1.21187 6.23496 1.67437 6.69713 2.13925C7.73451 3.18271 7.7373 4.71092 6.70388 5.75483C6.67109 5.78796 6.62984 5.81258 6.58442 5.84742C6.64109 5.90708 6.67901 5.94867 6.71867 5.98842C7.26976 6.541 7.82421 7.09029 8.3713 7.64687C8.71959 8.00125 8.58301 8.56383 8.12009 8.699C7.89359 8.76513 7.68246 8.71887 7.51426 8.55146C6.76196 7.80275 6.01063 7.053 5.2655 6.29717C5.01867 6.04679 5.02871 5.68196 5.27338 5.42542C5.45288 5.23717 5.64101 5.05725 5.82317 4.87154C6.36084 4.32337 6.36401 3.57854 5.82709 3.03417C5.37038 2.57113 4.91096 2.11075 4.4488 1.65321C3.90342 1.11329 3.15871 1.11387 2.61617 1.65092C2.38692 1.87783 2.1588 2.10596 1.93234 2.33567C1.02834 3.25263 1.03067 4.60308 1.94513 5.521C4.13005 7.71413 6.31826 9.90392 8.50517 12.095C9.15571 12.7469 9.80563 13.3993 10.457 14.0503C11.3956 14.9885 12.7393 14.9882 13.6825 14.0504C13.9039 13.8303 14.1258 13.6107 14.3437 13.3872C14.8668 12.8507 14.8708 12.1059 14.348 11.5726C13.8891 11.1045 13.426 10.6404 12.9586 10.1807C12.4195 9.65042 11.6619 9.65458 11.1188 10.1847C10.9401 10.3591 10.7676 10.5399 10.5882 10.7136C10.3168 10.9764 9.92846 10.9799 9.68259 10.7259C9.43284 10.4679 9.4473 10.0931 9.71892 9.81942C9.90946 9.62737 10.0987 9.43388 10.2933 9.24604C11.2725 8.301 12.8119 8.29787 13.786 9.24562C14.2894 9.73537 14.7863 10.2322 15.2745 10.737C16.2263 11.7214 16.2208 13.249 15.2657 14.2301C14.9537 14.5505 14.6413 14.8725 14.3076 15.1693C13.7887 15.6309 13.1724 15.8903 12.4826 15.9728C12.453 15.9764 12.4247 15.9907 12.3958 16C12.1774 16 11.959 16 11.7407 16Z" fill="white"/>
<path d="M10.9617 4.15222C11.1992 3.91276 11.4032 3.70626 11.6082 3.50055C11.9458 3.16164 12.2817 2.8211 12.6225 2.48539C12.8893 2.22247 13.2637 2.21618 13.5158 2.46289C13.7719 2.71339 13.7702 3.09872 13.5029 3.36922C13.0023 3.87597 12.4977 4.3788 11.9932 4.88172C11.9536 4.92122 11.9018 4.94851 11.8557 4.98147C11.8647 4.99839 11.8738 5.01535 11.8828 5.03226C12.1235 5.03226 12.3644 5.02651 12.6049 5.03372C12.8949 5.04239 13.1236 5.24172 13.1892 5.52876C13.2492 5.79126 13.1253 6.07589 12.8786 6.19964C12.7847 6.2468 12.6715 6.2768 12.5668 6.27772C11.8292 6.28426 11.0916 6.28318 10.3539 6.28039C9.98195 6.27897 9.71678 6.01297 9.71524 5.63868C9.71224 4.89964 9.71191 4.16055 9.71545 3.42151C9.7172 3.05868 9.9977 2.78034 10.3449 2.78447C10.689 2.78855 10.9557 3.06105 10.961 3.41889C10.9644 3.64676 10.9617 3.87468 10.9617 4.15222Z" fill="white"/>
</g>
<defs>
<clipPath id="clip0_1888_7563">
<rect width="16" height="16" fill="white"/>
</clipPath>
</defs>
</svg>
