<svg width="16" height="16" viewBox="0 0 16 16" fill="none" xmlns="http://www.w3.org/2000/svg">
<g clip-path="url(#clip0_1955_14)">
<path d="M8.3391 0.761902C8.57841 0.807536 8.8208 0.84104 9.05655 0.900698C10.7406 1.32698 12.0024 2.80989 12.162 4.54251C12.3573 6.66279 10.9789 8.56508 8.89516 9.03001C8.58992 9.09812 8.27003 9.12227 7.95633 9.12682C6.75073 9.14432 5.57319 9.30755 4.44517 9.75198C3.80619 10.0037 3.20684 10.3269 2.68482 10.7785C2.16387 11.2293 1.90308 11.805 1.89352 12.4928C1.8888 12.832 1.89129 13.1713 1.89307 13.5105C1.89493 13.8669 2.13119 14.1064 2.48631 14.1065C6.16156 14.1074 9.83679 14.1074 13.512 14.1065C13.8673 14.1065 14.1078 13.8672 14.1056 13.5115C14.1029 13.0691 14.1163 12.6244 14.0763 12.1848C14.0263 11.6334 13.7607 11.1748 13.3476 10.8066C12.9255 10.4305 12.4428 10.1493 11.9302 9.91538C11.6344 9.78034 11.5049 9.50863 11.5899 9.22389C11.6798 8.92274 12.0043 8.72847 12.2918 8.85067C13.1987 9.23607 14.0312 9.73454 14.6232 10.5524C14.9551 11.0111 15.1448 11.5291 15.2122 12.0917C15.216 12.1232 15.2291 12.1536 15.2379 12.1845C15.2379 12.7123 15.2379 13.24 15.2379 13.7678C15.228 13.7979 15.2155 13.8275 15.2085 13.8583C15.0664 14.4888 14.6947 14.9203 14.0885 15.1458C13.9845 15.1845 13.8747 15.2077 13.7676 15.2381C9.92238 15.2381 6.07714 15.2381 2.2319 15.2381C2.20176 15.2282 2.17221 15.2154 2.1414 15.2088C1.64276 15.1013 1.24814 14.8382 0.998908 14.3926C0.891411 14.2003 0.839104 13.9771 0.761719 13.7679C0.761719 13.2401 0.761719 12.7123 0.761719 12.1845C0.769946 12.1582 0.782528 12.1324 0.785808 12.1054C0.896896 11.1983 1.30774 10.4542 2.00684 9.86932C2.78004 9.22244 3.666 8.78578 4.62251 8.48532C4.88506 8.40284 5.15244 8.33575 5.41808 8.26147C5.41333 8.24604 5.41318 8.23515 5.4077 8.22972C5.39099 8.21324 5.37216 8.19896 5.35426 8.18364C4.23089 7.22148 3.71311 6.00483 3.84026 4.52834C3.9844 2.85445 5.21496 1.37988 6.83445 0.931969C7.10478 0.857213 7.38489 0.817714 7.66047 0.761902C7.88672 0.761902 8.11291 0.761902 8.3391 0.761902ZM11.0532 4.95151C11.0558 3.27267 9.6922 1.89978 8.01562 1.89302C6.3296 1.88624 4.95156 3.25152 4.94638 4.93387C4.94118 6.61919 6.30816 7.99578 7.99091 7.99988C9.67526 8.00396 11.0507 6.63477 11.0532 4.95151Z" fill="white"/>
</g>
<defs>
<clipPath id="clip0_1955_14">
<rect width="16" height="16" fill="white"/>
</clipPath>
</defs>
</svg>
