<svg width="16" height="16" viewBox="0 0 16 16" fill="none" xmlns="http://www.w3.org/2000/svg">
<g clip-path="url(#clip0_1888_3300)">
<path d="M11.7417 16C11.4656 15.9337 11.1834 15.8859 10.9146 15.7971C10.4137 15.6315 9.98315 15.3438 9.61007 14.97C6.75465 12.1088 3.89873 9.248 1.04382 6.38629C0.477565 5.81871 0.137315 5.13846 0.0413984 4.33867C0.0377734 4.30846 0.0237734 4.2795 0.0146484 4.25C0.0146484 4.03125 0.0146484 3.8125 0.0146484 3.59375C0.0242734 3.55913 0.0384815 3.52508 0.0428565 3.48979C0.127607 2.80617 0.386356 2.19546 0.842815 1.68183C1.14927 1.33704 1.48257 1.01567 1.81161 0.691708C2.1209 0.387208 2.49215 0.186 2.91231 0.0777912C3.02673 0.0483329 3.14294 0.02575 3.25831 0C3.44544 0 3.63256 0 3.81973 0C4.04765 0.0652917 4.28111 0.115791 4.50211 0.1995C4.81165 0.316708 5.07536 0.511458 5.30923 0.746833C5.77131 1.21187 6.23594 1.67437 6.69811 2.13925C7.73548 3.18271 7.73827 4.71092 6.70486 5.75483C6.67206 5.78796 6.63081 5.81258 6.5854 5.84742C6.64206 5.90708 6.67998 5.94867 6.71965 5.98842C7.27073 6.541 7.82519 7.09029 8.37227 7.64687C8.72057 8.00125 8.58398 8.56383 8.12107 8.699C7.89457 8.76513 7.68344 8.71887 7.51523 8.55146C6.76294 7.80275 6.01161 7.053 5.26648 6.29717C5.01965 6.04679 5.02969 5.68196 5.27436 5.42542C5.45386 5.23717 5.64198 5.05725 5.82415 4.87154C6.36182 4.32337 6.36498 3.57854 5.82807 3.03417C5.37136 2.57113 4.91194 2.11075 4.44977 1.65321C3.9044 1.11329 3.15969 1.11387 2.61715 1.65092C2.3879 1.87783 2.15977 2.10596 1.93332 2.33567C1.02932 3.25263 1.03165 4.60308 1.94611 5.521C4.13102 7.71413 6.31923 9.90392 8.50615 12.095C9.15669 12.7469 9.80661 13.3993 10.4579 14.0503C11.3966 14.9885 12.7403 14.9882 13.6835 14.0504C13.9049 13.8303 14.1268 13.6107 14.3447 13.3872C14.8677 12.8507 14.8717 12.1059 14.349 11.5726C13.8901 11.1045 13.4269 10.6404 12.9596 10.1807C12.4205 9.65042 11.6629 9.65458 11.1198 10.1847C10.9411 10.3591 10.7686 10.5399 10.5892 10.7136C10.3178 10.9764 9.92944 10.9799 9.68357 10.7259C9.43382 10.4679 9.44827 10.0931 9.7199 9.81942C9.91044 9.62737 10.0997 9.43388 10.2943 9.24604C11.2735 8.301 12.8129 8.29787 13.787 9.24562C14.2904 9.73537 14.7872 10.2322 15.2754 10.737C16.2273 11.7214 16.2218 13.249 15.2667 14.2301C14.9547 14.5505 14.6423 14.8725 14.3086 15.1693C13.7896 15.6309 13.1734 15.8903 12.4836 15.9728C12.454 15.9764 12.4257 15.9907 12.3968 16C12.1784 16 11.96 16 11.7417 16Z" fill="#303030" fill-opacity="0.52"/>
<path d="M10.9626 4.15222C11.2001 3.91276 11.4042 3.70626 11.6091 3.50055C11.9468 3.16164 12.2827 2.8211 12.6235 2.48539C12.8903 2.22247 13.2647 2.21618 13.5168 2.46289C13.7728 2.71339 13.7711 3.09872 13.5039 3.36922C13.0033 3.87597 12.4987 4.3788 11.9942 4.88172C11.9546 4.92122 11.9028 4.94851 11.8567 4.98147C11.8657 4.99839 11.8748 5.01535 11.8838 5.03226C12.1245 5.03226 12.3654 5.02651 12.6059 5.03372C12.8958 5.04239 13.1246 5.24172 13.1902 5.52876C13.2502 5.79126 13.1263 6.07589 12.8796 6.19964C12.7856 6.2468 12.6725 6.2768 12.5678 6.27772C11.8302 6.28426 11.0925 6.28318 10.3549 6.28039C9.98293 6.27897 9.71776 6.01297 9.71622 5.63868C9.71322 4.89964 9.71288 4.16055 9.71642 3.42151C9.71817 3.05868 9.99867 2.78034 10.3458 2.78447C10.69 2.78855 10.9566 3.06105 10.962 3.41889C10.9654 3.64676 10.9626 3.87468 10.9626 4.15222Z" fill="#303030" fill-opacity="0.52"/>
</g>
<defs>
<clipPath id="clip0_1888_3300">
<rect width="16" height="16" fill="white"/>
</clipPath>
</defs>
</svg>
