<svg width="16" height="16" viewBox="0 0 16 16" fill="none" xmlns="http://www.w3.org/2000/svg">
<path d="M9.06296 0C9.93171 0.314417 10.4829 0.985375 10.9655 1.72358C11.3194 2.265 11.5304 2.86792 11.6443 3.50467C11.7064 3.85233 11.5734 4.13175 11.2868 4.25542C11.0233 4.36908 10.71 4.29754 10.5504 4.05913C10.4755 3.94729 10.4344 3.80467 10.4076 3.67013C10.2219 2.73913 9.75975 1.97875 9.02371 1.38354C9.00496 1.36838 8.98296 1.35717 8.93684 1.32783C8.93684 1.40512 8.93684 1.45971 8.93684 1.51433C8.93684 2.16533 8.93234 2.81642 8.939 3.46738C8.94175 3.73321 8.8493 3.93692 8.63821 4.10029C8.12413 4.49813 7.61713 4.90512 7.10538 5.306C6.79675 5.54775 6.52479 5.54579 6.21375 5.30196C5.70217 4.90083 5.19429 4.495 4.68038 4.09692C4.47442 3.93737 4.38146 3.73796 4.38375 3.47792C4.38954 2.82696 4.38567 2.17592 4.38567 1.52488C4.38567 1.46892 4.38567 1.41292 4.38567 1.32071C4.29521 1.39213 4.22617 1.44183 4.16246 1.49762C2.02479 3.36892 2.60634 6.80413 5.24184 7.87575C5.63525 8.03571 5.74825 8.20513 5.74825 8.63683C5.74838 10.3503 5.74754 12.0638 5.74884 13.7773C5.74921 14.2872 6.03738 14.6475 6.50867 14.7368C7.02467 14.8347 7.53729 14.4385 7.56917 13.9126C7.57859 13.7569 7.57442 13.6003 7.57446 13.4441C7.57475 11.84 7.57454 10.2359 7.57471 8.63175C7.57475 8.20304 7.68942 8.03554 8.0855 7.87371C8.77675 7.59125 9.34517 7.14883 9.77259 6.53579C9.94329 6.29092 10.1535 6.17729 10.4534 6.18183C11.1499 6.19238 11.8466 6.18283 12.5432 6.18775C12.6462 6.18846 12.7005 6.15883 12.7457 6.06471C12.8919 5.76013 13.0466 5.45958 13.2016 5.15938C13.3783 4.81733 13.7335 4.68925 14.052 4.84875C14.3697 5.00783 14.4845 5.37583 14.3157 5.71642C14.0941 6.16358 13.8662 6.60762 13.6422 7.05362C13.5122 7.31258 13.3027 7.43588 13.015 7.4355C12.2768 7.43446 11.5387 7.43704 10.8005 7.43296C10.7026 7.43242 10.6392 7.46121 10.5771 7.53758C10.1278 8.08992 9.58521 8.52871 8.94938 8.84837C8.85246 8.89712 8.81221 8.95463 8.82009 9.06375C8.82971 9.197 8.82238 9.33146 8.82238 9.48246C8.90917 9.48246 8.97571 9.48246 9.04225 9.48246C10.4875 9.48246 11.9326 9.48183 13.3778 9.48292C13.7648 9.48321 14.0128 9.67992 14.0673 10.0226C14.1199 10.3526 13.8805 10.6773 13.5488 10.7213C13.4718 10.7315 13.3932 10.732 13.3154 10.732C11.8858 10.7326 10.4562 10.7324 9.02663 10.7324C8.96559 10.7324 8.90454 10.7324 8.83304 10.7324C8.83304 11.4195 8.83304 12.0886 8.83304 12.7824C8.89292 12.7824 8.95254 12.7824 9.01221 12.7824C10.3326 12.7824 11.6531 12.7859 12.9735 12.78C13.3024 12.7785 13.5239 12.912 13.667 13.2079C13.8775 13.6431 14.1044 14.0704 14.318 14.504C14.5159 14.9057 14.3103 15.335 13.8848 15.4222C13.6249 15.4755 13.3551 15.3479 13.2205 15.093C13.053 14.7758 12.8989 14.4516 12.7304 14.135C12.7054 14.088 12.6337 14.0369 12.5833 14.0367C11.3513 14.0313 10.1193 14.0326 8.88721 14.0331C8.86717 14.0331 8.84709 14.0383 8.81867 14.0422C8.7705 14.4495 8.63234 14.8209 8.3815 15.1444C8.02842 15.5999 7.56746 15.8775 6.99817 15.9722C6.96829 15.9772 6.9398 15.9906 6.91067 16C6.7443 16 6.57796 16 6.41159 16C6.39796 15.9929 6.38504 15.9821 6.37054 15.9792C5.16088 15.7348 4.50084 14.9307 4.50067 13.6997C4.5005 12.1588 4.49896 10.6179 4.50379 9.07708C4.50417 8.95413 4.46413 8.89617 4.35742 8.84113C1.64579 7.44213 0.772795 4.05429 2.48588 1.52717C2.93434 0.865625 3.46754 0.274917 4.25929 4.19617e-05C4.38404 4.19617e-05 4.50884 4.19617e-05 4.63359 4.19617e-05C4.64709 0.00754196 4.65971 0.018292 4.67417 0.022042C5.30754 0.187209 5.63279 0.606667 5.63334 1.26158C5.63384 1.88046 5.63188 2.49929 5.63596 3.11812C5.63638 3.1785 5.65284 3.26158 5.69375 3.29525C6.00967 3.5555 6.33342 3.80617 6.66084 4.06462C6.973 3.81929 7.27675 3.57675 7.58546 3.34071C7.66384 3.28079 7.69217 3.21717 7.6915 3.11842C7.68704 2.46838 7.68642 1.81829 7.69038 1.16825C7.69354 0.651791 8.02059 0.215542 8.51288 0.0571251C8.5715 0.0382501 8.63004 0.0190836 8.68863 4.19617e-05C8.81342 2.95001e-07 8.93821 0 9.06296 0Z" fill="white"/>
</svg>
