<svg width="16" height="16" viewBox="0 0 16 16" fill="none" xmlns="http://www.w3.org/2000/svg">
<g clip-path="url(#clip0_1888_3283)">
<path d="M0.015625 2.15629C0.015625 1.98963 0.015625 1.82296 0.015625 1.65629C0.0259583 1.62821 0.0402085 1.60092 0.0460418 1.57192C0.162083 0.99525 0.46825 0.546792 0.979208 0.260792C1.19129 0.142083 1.43779 0.0850836 1.66867 4.19617e-05C1.835 4.19617e-05 2.00133 4.19617e-05 2.16771 4.19617e-05C2.20163 0.0105003 2.23487 0.0242918 2.2695 0.0309168C2.61925 0.0977085 2.92971 0.2465 3.19371 0.485667C3.81925 1.05229 4.00113 1.89 3.6795 2.68042C3.66133 2.72508 3.665 2.80658 3.694 2.83829C3.96396 3.1335 4.24175 3.42154 4.49933 3.69283C6.83379 2.07075 9.12438 2.06221 11.4173 3.63046C11.6868 3.367 11.9595 3.09579 12.2384 2.83104C12.3164 2.757 12.3318 2.69854 12.2904 2.59175C11.985 1.80308 12.2446 0.913584 12.9138 0.395792C13.1878 0.183834 13.5034 0.0787083 13.8324 0C13.9987 0 14.165 0 14.3314 0C14.3647 0.011 14.3973 0.0257923 14.4314 0.0325006C15.668 0.276709 16.3399 1.62013 15.7904 2.75092C15.3468 3.66379 14.2688 4.06975 13.3298 3.68075C13.2811 3.66058 13.195 3.6445 13.1687 3.67013C12.8757 3.95579 12.591 4.25004 12.304 4.54208C12.3338 4.58308 12.3547 4.61275 12.3765 4.64183C13.2231 5.76996 13.6011 7.03638 13.4948 8.44567C13.467 8.8145 13.1818 9.07967 12.8395 9.05563C12.4764 9.03013 12.2306 8.72579 12.2497 8.34646C12.2616 8.10812 12.2663 7.86717 12.2463 7.62975C12.0382 5.16929 9.79025 3.39929 7.35646 3.77442C4.30496 4.24471 2.74413 7.70246 4.40867 10.3059C4.60429 10.6119 4.83233 10.8906 5.11217 11.1412C5.26871 10.1847 5.33346 10.0677 6.12879 9.28987C5.19579 8.09221 5.58454 6.63729 6.43817 5.92012C7.32192 5.17771 8.63113 5.167 9.52854 5.89129C10.3665 6.56767 10.8425 8.03721 9.86621 9.29946C10.4889 9.74775 10.8294 10.3566 10.8785 11.1458C10.9197 11.1115 10.9472 11.0909 10.972 11.0676C11.3282 10.735 11.6476 10.7385 11.9905 11.0796C12.3815 11.4685 12.7746 11.8552 13.1616 12.2482C13.2383 12.3261 13.297 12.3366 13.401 12.2968C14.423 11.9057 15.5473 12.4541 15.8932 13.5058C16.2272 14.5214 15.6233 15.6424 14.5863 15.9302C14.4918 15.9565 14.3957 15.9768 14.3003 15.9999C14.1443 15.9999 13.9884 15.9999 13.8325 15.9999C13.7986 15.9894 13.7655 15.9756 13.7309 15.969C13.3921 15.9038 13.0903 15.7604 12.8296 15.5349C12.1954 14.9861 11.9928 14.1085 12.3138 13.3331C12.3335 13.2856 12.3443 13.2015 12.3178 13.1727C12.0431 12.8751 11.76 12.5854 11.4993 12.3144C9.16725 13.9294 6.87642 13.9367 4.58658 12.3704C4.31521 12.6342 4.04154 12.9045 3.76217 13.1687C3.68454 13.2422 3.66771 13.3005 3.70921 13.4078C4.01821 14.2073 3.74721 15.1115 3.06171 15.6234C2.79325 15.8238 2.48679 15.9247 2.16775 15.9998C2.01179 15.9998 1.85587 15.9998 1.69992 15.9998C1.67071 15.9905 1.64213 15.9777 1.61221 15.9722C1.01154 15.8608 0.551375 15.5424 0.260208 15.0065C0.148958 14.8018 0.0954999 14.5655 0.0157499 14.3436C0.0157499 14.1769 0.0157499 14.0102 0.0157499 13.8436C0.0262083 13.8095 0.0398752 13.776 0.0465835 13.7412C0.113917 13.391 0.262709 13.0803 0.500792 12.8152C1.06246 12.1896 1.90321 12.006 2.69112 12.3287C2.73562 12.347 2.81696 12.3433 2.84854 12.3142C3.143 12.0436 3.43029 11.7651 3.70113 11.5067C2.08217 9.16846 2.07333 6.87338 3.63779 4.57933C3.37471 4.30754 3.10496 4.03338 2.84125 3.75346C2.76796 3.67567 2.70954 3.659 2.60258 3.7005C1.81029 4.00792 0.9135 3.74213 0.400958 3.06442C0.195292 2.79283 0.092 2.48117 0.015625 2.15629ZM8.00621 10.1476C8.00604 10.1515 8.00592 10.1553 8.00575 10.1592C7.80313 10.1592 7.60037 10.1547 7.39787 10.16C6.82921 10.1752 6.38742 10.6211 6.37621 11.1904C6.37192 11.409 6.37863 11.6278 6.373 11.8463C6.37092 11.9265 6.3975 11.9663 6.4725 11.9942C7.49333 12.3734 8.51375 12.3717 9.53229 11.9903C9.57388 11.9747 9.61917 11.9043 9.62096 11.8578C9.62967 11.6291 9.62867 11.3997 9.62292 11.1708C9.61062 10.6827 9.26346 10.2624 8.78242 10.1872C8.52783 10.1474 8.26521 10.1592 8.00621 10.1476ZM9.161 7.75888C9.16337 7.11892 8.64308 6.59838 8.00062 6.598C7.36462 6.59763 6.84446 7.10983 6.839 7.74183C6.83346 8.38475 7.34742 8.90471 7.99142 8.90763C8.63888 8.91063 9.15858 8.40017 9.161 7.75888ZM14.7364 1.90838C14.7333 1.54371 14.4326 1.24771 14.0678 1.25033C13.704 1.25296 13.4073 1.55579 13.4115 1.92017C13.4157 2.28742 13.715 2.58213 14.0795 2.57783C14.4451 2.57354 14.7395 2.27358 14.7364 1.90838ZM14.7365 14.0832C14.7355 13.7187 14.4352 13.4203 14.0712 13.4219C13.7054 13.4235 13.4101 13.7217 13.4116 14.0879C13.4131 14.4535 13.7118 14.7509 14.0762 14.7496C14.4405 14.7482 14.7375 14.4484 14.7365 14.0832ZM1.93013 1.25038C1.56413 1.24838 1.26371 1.54746 1.26354 1.91404C1.26338 2.28058 1.56383 2.57988 1.92992 2.57783C2.29092 2.57579 2.58325 2.28471 2.58829 1.92225C2.59337 1.55621 2.29575 1.25238 1.93013 1.25038ZM1.92725 13.4219C1.56271 13.4212 1.26396 13.7195 1.26354 14.0845C1.26308 14.4493 1.56112 14.749 1.92504 14.7496C2.28937 14.7502 2.58738 14.4523 2.58833 14.0865C2.58925 13.7207 2.29275 13.4226 1.92725 13.4219Z" fill="#303030" fill-opacity="0.52"/>
</g>
<defs>
<clipPath id="clip0_1888_3283">
<rect width="16" height="16" fill="white"/>
</clipPath>
</defs>
</svg>
