<svg width="18" height="18" viewBox="0 0 18 18" fill="none" xmlns="http://www.w3.org/2000/svg">
<g clip-path="url(#clip0_1888_3359)">
<path d="M0 13.1837C0.109617 12.8778 0.162035 12.533 0.339152 12.2732C0.980684 11.3322 1.46334 10.3027 2.04205 9.32773C2.57885 8.42333 3.39514 7.95259 4.42948 7.92088C5.60014 7.88495 6.77362 7.88425 7.94426 7.92095C9.00053 7.95403 9.82719 8.44003 10.3575 9.37329C10.7796 10.1161 11.1858 10.8679 11.6019 11.6141C11.6526 11.7052 11.7146 11.7916 11.7815 11.8718C12.1673 12.3343 12.3735 12.8633 12.3744 13.4672C12.3762 14.6859 12.3656 15.9046 12.38 17.1231C12.3852 17.5593 12.2332 17.8573 11.8125 18C11.0977 18 10.3828 18 9.668 18C9.15082 17.8322 9.06504 17.4225 9.10891 16.9561C7.14811 16.9561 5.21416 16.9561 3.25839 16.9561C3.3197 17.4391 3.21254 17.8301 2.70707 18C1.99223 18 1.27737 18 0.562535 18C0.278437 17.9092 0.0903515 17.7222 3.51369e-05 17.4375C-1.93136e-08 16.0196 0 14.6016 0 13.1837ZM1.41079 15.539C2.2674 15.539 3.10405 15.5406 3.94066 15.535C3.99076 15.5346 4.05587 15.4873 4.08779 15.4431C4.25876 15.2057 4.42301 14.9634 4.58645 14.7208C4.743 14.4883 4.95826 14.3769 5.23884 14.3781C5.88294 14.3809 6.52704 14.3803 7.17114 14.3783C7.43713 14.3775 7.64585 14.4814 7.80103 14.6973C7.97527 14.9397 8.15572 15.1777 8.32465 15.4236C8.38473 15.5111 8.44949 15.5421 8.55461 15.5415C9.28652 15.537 10.0185 15.5391 10.7504 15.5391C10.8187 15.5391 10.8869 15.5391 10.9621 15.5391C10.9621 14.7941 10.9788 14.0687 10.9508 13.345C10.9435 13.1579 10.828 12.9509 10.7065 12.797C10.4188 12.4323 10.0098 12.3044 9.55466 12.3045C7.31197 12.305 5.06932 12.3042 2.82663 12.3063C2.69873 12.3064 2.56887 12.3184 2.44325 12.3424C1.89207 12.4477 1.43568 12.8796 1.41739 13.3772C1.39127 14.0896 1.41079 14.8036 1.41079 15.539ZM9.59256 10.8942C9.44385 10.6246 9.30442 10.3824 9.1749 10.135C8.88086 9.57343 8.40372 9.32105 7.78672 9.31799C6.72082 9.31264 5.65488 9.3143 4.58898 9.31904C4.43851 9.31971 4.2852 9.34151 4.13824 9.3754C3.33436 9.56085 3.14529 10.2888 2.78156 10.8942C5.06137 10.8942 7.30962 10.8942 9.59256 10.8942Z" fill="#E25C27"/>
<path d="M18 12.7969C17.8573 13.2183 17.5589 13.3786 17.1222 13.3638C16.5837 13.3455 16.0442 13.3603 15.5051 13.3591C15.0191 13.3581 14.735 13.0705 14.7328 12.5801C14.7324 12.4938 14.7327 12.4077 14.7327 12.3047C14.4824 12.3047 14.2496 12.305 14.0167 12.3047C13.5394 12.304 13.2213 12.025 13.2192 11.6054C13.2172 11.1846 13.5357 10.8988 14.0087 10.8986C14.7998 10.8982 15.5908 10.8985 16.3818 10.8985C16.4452 10.8985 16.5086 10.8985 16.5717 10.8985C16.5812 10.8716 16.5915 10.8559 16.5915 10.8402C16.5923 10.061 16.6005 9.28159 16.5894 8.50245C16.582 7.99075 16.1452 7.53696 15.5715 7.4228C15.4292 7.39447 15.281 7.38473 15.1354 7.38448C13.5124 7.38188 11.8893 7.3842 10.2663 7.38202C9.74882 7.38132 9.40654 6.92306 9.56534 6.4532C9.66519 6.15778 9.92882 5.97739 10.2709 5.97707C11.4486 5.97595 12.6263 5.97662 13.8041 5.97662C14.2654 5.97662 14.7268 5.97662 15.2447 5.97662C14.9971 5.5764 14.7993 5.18908 14.5369 4.85215C14.289 4.53388 13.908 4.40218 13.5068 4.39895C12.376 4.3898 11.2449 4.3827 10.1144 4.40144C9.56394 4.41055 9.126 4.66202 8.85438 5.16184C8.71467 5.41893 8.577 5.67726 8.43124 5.93091C8.36451 6.04704 8.29009 6.16157 8.20241 6.26226C7.97913 6.51866 7.64391 6.57635 7.35999 6.4192C7.08887 6.26912 6.90802 5.92617 7.04264 5.63989C7.3794 4.92376 7.66701 4.16807 8.31153 3.64453C8.83037 3.22307 9.42792 3.00096 10.0918 2.9935C11.2401 2.98064 12.3893 2.96559 13.5369 2.99709C14.6079 3.02652 15.4449 3.50872 15.9843 4.45379C16.3208 5.04336 16.6374 5.64432 16.9748 6.23336C17.1485 6.53666 17.3416 6.82965 17.5383 7.11881C17.7525 7.43367 17.9024 7.77148 17.9661 8.1473C17.9728 8.18626 17.9885 8.22366 18 8.26181C18 9.77349 18 11.2852 18 12.7969Z" fill="#E25C27"/>
<path d="M9.56278 0C9.76665 0.0463359 9.98199 0.0654257 10.1718 0.14523C10.4817 0.275625 10.7929 0.419027 11.0708 0.605777C11.4045 0.829969 11.4474 1.27174 11.2113 1.58495C10.981 1.89053 10.5648 1.95891 10.2412 1.72473C9.92827 1.49829 9.58209 1.40611 9.20338 1.40621C8.13136 1.4065 7.05934 1.40182 5.98739 1.40801C5.36994 1.41159 4.89456 1.66778 4.60248 2.23066C4.47409 2.47806 4.3335 2.71912 4.18451 2.98825C4.72342 2.98825 5.23104 2.98765 5.73866 2.98877C5.83801 2.98898 5.93969 2.9835 6.0363 3.00175C6.39556 3.0696 6.63901 3.39609 6.60706 3.75479C6.57517 4.11282 6.28088 4.38919 5.91012 4.39277C5.33025 4.3984 4.75025 4.39182 4.17034 4.39569C3.79368 4.39819 3.45671 4.51557 3.17721 4.77485C2.93773 4.997 2.81166 5.2708 2.81264 5.60057C2.8137 5.95789 2.81447 6.31526 2.81236 6.67255C2.80983 7.1029 2.51519 7.41526 2.11356 7.41737C1.71134 7.41948 1.40548 7.10694 1.40822 6.6806C1.41139 6.18915 1.40558 5.69616 1.44278 5.20682C1.47639 4.76469 1.6842 4.38086 1.95504 4.03207C2.03348 3.93107 2.10864 3.82567 2.17094 3.71426C2.57935 2.98403 2.98586 2.25267 3.3891 1.51956C3.86332 0.657422 4.5938 0.172336 5.56046 0.0290741C5.59449 0.0240116 5.62718 0.00987891 5.66051 0C6.96122 0 8.262 0 9.56278 0Z" fill="#E25C27"/>
<path d="M4.43762 5.34406C4.82403 5.34778 5.13632 5.66693 5.13259 6.05425C5.12887 6.44037 4.80926 6.75316 4.42233 6.74932C4.03614 6.74553 3.72381 6.42617 3.72757 6.03896C3.73133 5.65213 4.04999 5.3403 4.43762 5.34406Z" fill="#E25C27"/>
<path d="M15.6443 9.14177C15.6438 9.52814 15.3269 9.84391 14.9405 9.84332C14.5537 9.84272 14.2386 9.52631 14.2393 9.13935C14.24 8.7521 14.5557 8.43742 14.9429 8.43805C15.3297 8.43865 15.6448 8.75481 15.6443 9.14177Z" fill="#E25C27"/>
<path d="M3.02974 14.6595C2.64264 14.6625 2.32412 14.3492 2.32131 13.9627C2.3185 13.5751 2.63103 13.2571 3.01772 13.2542C3.4051 13.2512 3.7233 13.564 3.72633 13.9507C3.72935 14.3377 3.41607 14.6564 3.02974 14.6595Z" fill="#E25C27"/>
<path d="M10.0192 13.9561C10.0197 14.3427 9.704 14.6593 9.31749 14.6597C8.9308 14.6602 8.61457 14.3445 8.61426 13.9578C8.61394 13.5704 8.92873 13.2549 9.31584 13.2545C9.70284 13.254 10.0187 13.5692 10.0192 13.9561Z" fill="#E25C27"/>
</g>
<defs>
<clipPath id="clip0_1888_3359">
<rect width="18" height="18" fill="white"/>
</clipPath>
</defs>
</svg>
