<svg width="18" height="18" viewBox="0 0 18 18" fill="none" xmlns="http://www.w3.org/2000/svg">
<g clip-path="url(#clip0_1888_3392)">
<path d="M4.09552 0C4.52463 0.0831445 4.84238 0.339293 5.13045 0.650567C5.36807 0.907313 5.62028 1.15063 5.87031 1.40428C6.09812 1.17911 6.31437 0.974074 6.52028 0.759129C6.69715 0.574488 6.90211 0.488109 7.16051 0.488601C9.32835 0.49275 11.4962 0.489621 13.6641 0.491414C15.2668 0.49275 16.5049 1.72529 16.5073 3.32965C16.5113 6.08927 16.5088 8.8489 16.5081 11.6086C16.508 12.0573 16.2215 12.3702 15.8135 12.3738C15.4006 12.3774 15.1027 12.0574 15.1025 11.6039C15.1016 9.51219 15.1021 7.4205 15.1021 5.32881C15.1021 5.25931 15.1021 5.18984 15.1021 5.09646C15.0233 5.09646 14.9554 5.09646 14.8875 5.09646C13.4345 5.09646 11.9814 5.09361 10.5284 5.09903C10.258 5.10005 10.0455 5.0098 9.85601 4.81859C9.00632 3.96141 8.1503 3.11052 7.29748 2.25643C7.25645 2.21534 7.22407 2.16562 7.17738 2.10702C7.10957 2.17171 7.06316 2.21389 7.01908 2.25837C5.88068 3.40685 4.74137 4.55442 3.60769 5.70755C3.54718 5.76907 3.50394 5.87746 3.50377 5.96412C3.49849 9.01083 3.49885 12.0576 3.49969 15.1043C3.49993 15.9942 4.09819 16.5932 4.98771 16.5935C7.86451 16.5945 10.7414 16.5944 13.6182 16.5935C14.4753 16.5932 15.0588 16.0393 15.102 15.1902C15.1231 14.7742 15.4281 14.4764 15.8243 14.4848C16.2196 14.4932 16.5082 14.8058 16.5077 15.2248C16.5058 16.5704 15.4726 17.7667 14.1418 17.9652C14.097 17.9719 14.0536 17.9883 14.0096 18.0001C10.869 18.0001 7.72832 18.0001 4.5877 18.0001C4.56717 17.9905 4.54752 17.9758 4.526 17.9722C3.04684 17.7198 2.09351 16.5952 2.09319 15.0981C2.09249 11.9366 2.09421 8.77507 2.09073 5.61354C2.09045 5.3505 2.1686 5.13369 2.36214 4.95594C2.55082 4.78266 2.73627 4.60585 2.93694 4.41766C2.58299 4.06621 2.25695 3.74783 1.93689 3.42348C1.34549 2.82421 1.34261 1.98605 1.92859 1.38431C2.15732 1.14943 2.39863 0.926543 2.62173 0.686602C2.91683 0.369176 3.2376 0.0981914 3.67368 7.02739e-05C3.81427 -3.86271e-08 3.95489 0 4.09552 0ZM15.1021 3.69014C15.1021 3.57497 15.1023 3.48212 15.1021 3.38931C15.0998 2.48537 14.5103 1.8977 13.6038 1.89735C12.1162 1.89678 10.6285 1.89721 9.1409 1.89721C9.08503 1.89721 9.02917 1.89721 8.9385 1.89721C8.99784 1.96186 9.03033 2 9.06566 2.03537C9.57887 2.54922 10.0941 3.06105 10.6042 3.57796C10.6845 3.65927 10.7647 3.69292 10.8793 3.69257C12.1502 3.68877 13.4211 3.69018 14.692 3.69018C14.8201 3.69014 14.9482 3.69014 15.1021 3.69014ZM2.94404 2.39375C3.26608 2.71332 3.59584 3.04056 3.89193 3.33439C4.20682 3.02998 4.53666 2.71111 4.85169 2.40655C4.53086 2.08561 4.20636 1.76094 3.89333 1.44777C3.57731 1.76263 3.25099 2.08782 2.94404 2.39375Z" fill="#E25C27"/>
<path d="M12.1488 11.5561C12.1397 13.0315 11.0356 14.2336 9.56357 14.3709C8.14554 14.503 6.83031 13.4801 6.56625 12.0407C6.46335 11.4798 6.54868 10.9478 6.79266 10.4346C7.17287 9.63475 7.69642 8.9312 8.24897 8.24699C8.43291 8.01921 8.61987 7.79298 8.819 7.5786C9.10868 7.26669 9.56575 7.25506 9.84732 7.56978C10.5827 8.39162 11.2689 9.2519 11.7849 10.2338C12.0514 10.7409 12.1515 11.123 12.1488 11.5561ZM9.34775 9.1452C8.94369 9.5541 8.23213 10.6182 8.03853 11.1093C7.98977 11.233 7.94255 11.365 7.93432 11.4957C7.89839 12.0654 8.25337 12.6242 8.78152 12.855C9.31635 13.0886 9.94143 12.9618 10.347 12.5372C10.7592 12.1057 10.8468 11.5384 10.5825 10.9847C10.2625 10.3145 9.81226 9.73171 9.34775 9.1452Z" fill="#E25C27"/>
</g>
<defs>
<clipPath id="clip0_1888_3392">
<rect width="18" height="18" fill="white"/>
</clipPath>
</defs>
</svg>
