<svg width="18" height="18" viewBox="0 0 18 18" fill="none" xmlns="http://www.w3.org/2000/svg">
<g clip-path="url(#clip0_2071_2)">
<path d="M0 16.9805C0 16.875 0 16.7695 0 16.6641C0.0102305 16.6373 0.0241523 16.6113 0.0300937 16.5836C0.173109 15.9194 0.479953 15.3423 0.967254 14.8691C1.16666 14.6754 1.39155 14.5081 1.60495 14.3289C0.87082 13.2245 1.22481 12.0414 1.90891 11.4189C2.68225 10.7152 3.81449 10.6305 4.66274 11.2199C5.08584 11.5138 5.37775 11.9073 5.52646 12.4016C5.73318 13.0887 5.60296 13.7268 5.22524 14.3259C5.49527 14.0734 5.74066 13.8 6.02318 13.5728C6.31209 13.3405 6.63743 13.1534 6.94631 12.9469C6.00511 11.7371 6.28896 10.2214 7.18028 9.38323C8.13885 8.48183 9.55016 8.39918 10.5904 9.18822C11.1039 9.57765 11.4351 10.0905 11.5718 10.7223C11.7511 11.5511 11.5496 12.2943 11.0316 12.9728C11.7223 13.2969 12.2796 13.7664 12.7659 14.3347C12.458 13.8235 12.3091 13.2845 12.407 12.6921C12.5064 12.0911 12.8045 11.6103 13.2947 11.2516C14.0986 10.6634 15.1894 10.6897 15.9706 11.3161C16.3623 11.6301 16.6209 12.0325 16.7386 12.5224C16.8966 13.1806 16.7536 13.7832 16.384 14.3438C16.4317 14.3788 16.468 14.4075 16.5064 14.4332C16.9165 14.7068 17.2494 15.0539 17.5177 15.4679C17.7568 15.8366 17.8877 16.2458 18 16.6641C18 16.7695 18 16.875 18 16.9805C17.9481 17.1218 17.9108 17.2708 17.8413 17.4028C17.6598 17.7477 17.3469 17.9153 16.9805 18C11.6602 18 6.33983 18 1.01953 18C0.88323 17.951 0.739758 17.916 0.612 17.8504C0.258926 17.6691 0.0875039 17.3525 0 16.9805ZM12.2687 16.5875C12.0589 15.2844 10.7456 13.8742 8.90835 13.926C7.04609 13.9786 5.88628 15.4695 5.7363 16.5875C7.90931 16.5875 10.0815 16.5875 12.2687 16.5875ZM9.00211 10.0561C8.33027 10.0543 7.76904 10.6156 7.7709 11.2874C7.77273 11.9537 8.32085 12.5057 8.9891 12.5143C9.65841 12.5229 10.2239 11.9653 10.2291 11.2917C10.2343 10.6211 9.67489 10.0578 9.00211 10.0561ZM4.2725 16.5891C4.35952 16.2439 4.44171 15.9177 4.52412 15.5917C3.2985 14.7861 1.77852 15.5629 1.51991 16.5891C2.43949 16.5891 3.3582 16.5891 4.2725 16.5891ZM16.4976 16.5867C16.0972 15.379 14.4864 14.8626 13.4777 15.5946C13.5605 15.9237 13.6427 16.2503 13.7274 16.5867C14.6384 16.5867 15.5623 16.5867 16.4976 16.5867ZM3.42042 12.2356C2.98185 12.2299 2.61109 12.5893 2.60283 13.0283C2.5946 13.4668 2.95189 13.8393 3.39114 13.8501C3.83643 13.861 4.21411 13.4948 4.21748 13.0488C4.22079 12.61 3.85949 12.2414 3.42042 12.2356ZM15.3972 13.0454C15.3986 12.6065 15.0357 12.2395 14.5967 12.2356C14.1579 12.2318 13.7888 12.5927 13.7826 13.0318C13.7762 13.4774 14.1461 13.8515 14.5918 13.8503C15.0309 13.8491 15.3958 13.4845 15.3972 13.0454Z" fill="#5C8374"/>
<path d="M0 9.5625C0 9.19923 0 8.83592 0 8.47265C0.0108281 8.41067 0.023871 8.34897 0.0320625 8.28664C0.0748125 7.96197 0.0999493 7.634 0.161051 7.31288C0.502031 5.52037 1.31773 3.97149 2.60033 2.67658C3.94516 1.31888 5.56112 0.464022 7.44891 0.138616C7.78806 0.0801511 8.13132 0.045593 8.47269 3.05176e-05C8.82425 3.05176e-05 9.17582 3.05176e-05 9.52738 3.05176e-05C9.58433 0.0106125 9.64097 0.0237607 9.69834 0.0312842C10.0288 0.0746318 10.3627 0.0998038 10.6895 0.161925C12.4822 0.502624 14.0302 1.31916 15.3247 2.60251C16.682 3.94801 17.5369 5.56351 17.8618 7.4514C17.92 7.78974 17.9546 8.13216 18.0001 8.47269C18.0001 8.83596 18.0001 9.19926 18.0001 9.56253C17.9775 9.73536 17.9524 9.90791 17.9329 10.0811C17.8883 10.4778 17.5578 10.7569 17.1711 10.7218C16.7807 10.6863 16.4984 10.3376 16.5357 9.93659C16.5425 9.86357 16.5503 9.79062 16.5591 9.70287C16.1661 9.70287 15.7921 9.70435 15.4181 9.70238C15.1599 9.70101 14.9509 9.59737 14.8095 9.37905C14.5105 8.91717 14.83 8.31691 15.3888 8.3001C15.7741 8.2885 16.16 8.29789 16.5413 8.29789C16.5486 8.27075 16.5549 8.25978 16.5538 8.24955C16.4217 6.96069 15.9901 5.78151 15.262 4.70956C15.2034 4.62329 15.1477 4.64034 15.069 4.66323C14.7154 4.76595 14.3609 4.86555 14.0051 4.96061C13.7919 5.01757 13.5759 5.06401 13.3561 5.11639C13.4237 5.52842 13.5072 5.92386 13.55 6.32362C13.6168 6.94603 13.6687 7.57068 13.7021 8.19569C13.7236 8.59851 13.4123 8.91442 13.0285 8.92842C12.6346 8.9428 12.3325 8.64337 12.3002 8.22958C12.2487 7.57047 12.1934 6.91136 12.122 6.25419C12.0889 5.94938 12.014 5.64915 11.9593 5.35366C11.1935 5.41132 10.4544 5.46697 9.70274 5.52353C9.70274 5.91011 9.70671 6.29022 9.70151 6.67023C9.69715 6.99008 9.51131 7.24696 9.22866 7.34269C8.77127 7.49759 8.31087 7.17366 8.29941 6.67933C8.29048 6.29384 8.29761 5.908 8.29761 5.52311C7.54777 5.46718 6.81486 5.41251 6.07778 5.35753C6.06635 5.40418 6.05573 5.44338 6.04719 5.483C5.85545 6.37291 5.77325 7.27537 5.73374 8.1831C5.71511 8.61092 5.40077 8.91108 5.0007 8.89298C4.61116 8.87533 4.30144 8.54996 4.33389 8.13656C4.39657 7.33788 4.48404 6.54106 4.5688 5.74425C4.59074 5.53812 4.64077 5.33499 4.67497 5.14659C4.06238 4.97591 3.47242 4.8087 2.87958 4.65229C2.83722 4.64111 2.7553 4.69603 2.72331 4.74212C2.28284 5.37665 1.94544 6.06494 1.73507 6.80663C1.5988 7.28711 1.51657 7.78289 1.41311 8.25823C1.46 8.28414 1.4651 8.28938 1.47027 8.28945C1.79209 8.29251 2.11416 8.28857 2.43573 8.2994C2.92141 8.31575 3.23902 8.76817 3.09076 9.22155C2.99595 9.51152 2.73611 9.69746 2.40606 9.70192C2.08652 9.70621 1.76692 9.70284 1.43729 9.70284C1.44759 9.79203 1.4554 9.85563 1.46222 9.91937C1.5063 10.3306 1.22576 10.6859 0.828808 10.7218C0.434215 10.7575 0.109652 10.4758 0.065707 10.0635C0.0478476 9.89606 0.0221133 9.72949 0 9.5625ZM11.5519 3.98292C11.1326 3.00118 10.6789 2.10315 9.71223 1.56965C9.71223 2.42996 9.71223 3.25891 9.71223 4.11103C10.3216 4.06859 10.9202 4.0269 11.5519 3.98292ZM8.28598 4.11138C8.28598 3.25835 8.28598 2.4269 8.28598 1.56775C7.31953 2.10849 6.87653 3.00614 6.47244 3.98432C7.09253 4.02778 7.6841 4.06923 8.28598 4.11138ZM5.76953 2.1357C5.05448 2.47141 4.40866 2.9084 3.80693 3.47523C4.24016 3.57788 4.6415 3.67298 5.03216 3.76555C5.28187 3.21359 5.52364 2.67918 5.76953 2.1357ZM12.9892 3.76217C13.3749 3.66953 13.77 3.57461 14.195 3.47252C13.5877 2.91178 12.957 2.47468 12.2541 2.14927C12.4993 2.68741 12.7403 3.21602 12.9892 3.76217Z" fill="#5C8374"/>
</g>
<defs>
<clipPath id="clip0_2071_2">
<rect width="18" height="18" fill="white"/>
</clipPath>
</defs>
</svg>
