<svg width="18" height="18" viewBox="0 0 18 18" fill="none" xmlns="http://www.w3.org/2000/svg">
<g clip-path="url(#clip0_1888_3410)">
<path d="M15.056 0.321426C15.4556 0.470047 15.5923 0.763762 15.5865 1.18074C15.5714 2.25964 15.5825 3.3389 15.5807 4.41803C15.5801 4.79727 15.4051 5.04912 15.0886 5.14084C14.6893 5.25655 14.284 4.98738 14.2371 4.57329C14.2288 4.50057 14.2285 4.42671 14.2284 4.35339C14.2278 3.53417 14.2281 2.71495 14.2281 1.89573C14.2281 1.82892 14.2281 1.76211 14.2281 1.6775C14.1508 1.6775 14.0906 1.6775 14.0304 1.6775C10.399 1.6775 6.76757 1.67745 3.13618 1.67754C2.60954 1.67754 2.35239 1.93709 2.35235 2.47141C2.35199 6.1551 2.35217 9.83879 2.35212 13.5224C2.35212 13.5827 2.35212 13.643 2.35212 13.6713C2.8096 13.6424 3.24565 13.6148 3.70548 13.5858C3.70548 13.523 3.70548 13.4458 3.70548 13.3685C3.70548 10.199 3.70517 7.02942 3.70684 3.85989C3.70688 3.74227 3.70928 3.61974 3.74056 3.50795C3.82536 3.20502 4.12599 3.00934 4.43991 3.03542C4.75206 3.06132 5.00903 3.30667 5.04759 3.6215C5.05853 3.71082 5.05844 3.80185 5.05844 3.89207C5.05893 7.04465 5.05884 10.1973 5.05884 13.3499C5.05884 13.4286 5.05884 13.5074 5.05884 13.6105C5.13487 13.6105 5.20023 13.6105 5.26555 13.6105C7.09817 13.6105 8.93075 13.6099 10.7634 13.611C11.2068 13.6113 11.5171 13.9323 11.481 14.3468C11.4517 14.6833 11.186 14.944 10.8493 14.9647C10.7874 14.9685 10.7252 14.9665 10.6632 14.9665C8.13702 14.9666 5.61084 14.9662 3.08465 14.9669C2.62997 14.967 2.31953 15.287 2.35836 15.7102C2.38842 16.0375 2.65108 16.2965 2.9796 16.3201C3.04695 16.325 3.11489 16.3225 3.18251 16.3225C7.06766 16.3225 10.9528 16.3224 14.8379 16.3228C15.2315 16.3228 15.5155 16.544 15.568 16.8877C15.6173 17.2111 15.4597 17.4958 15.1588 17.6278C15.1238 17.6432 15.0902 17.6616 15.0559 17.6786C10.9619 17.6786 6.86796 17.6786 2.77398 17.6786C2.52167 17.5876 2.24884 17.532 2.02085 17.3992C1.32394 16.9932 0.997769 16.364 0.998085 15.5577C0.999486 11.8016 0.998673 8.04554 0.998673 4.28943C0.998673 3.65685 0.996864 3.02421 0.999396 2.39163C1.00229 1.6681 1.28954 1.07764 1.8932 0.683485C2.15437 0.512988 2.47846 0.439175 2.77398 0.321472C6.86805 0.321427 10.962 0.321426 15.056 0.321426Z" fill="#5C8374"/>
<path d="M6.36523 8.32458C6.44411 7.92822 6.49812 7.52484 6.60765 7.1372C6.77272 6.55275 7.36481 6.41322 7.7948 6.84077C8.29509 7.33821 8.79352 7.8375 9.28594 8.34266C9.37277 8.43175 9.45092 8.4549 9.56586 8.42416C9.75611 8.37331 9.94849 8.32897 10.1419 8.29172C10.2402 8.27278 10.2808 8.22591 10.2994 8.12791C10.3383 7.92311 10.3878 7.71998 10.4419 7.51861C10.4685 7.41971 10.4484 7.35209 10.3756 7.27854C9.86767 6.76493 9.36183 6.24914 8.86028 5.72924C8.56335 5.42146 8.58121 4.96372 8.9015 4.71507C8.99213 4.64469 9.10717 4.59727 9.21827 4.56319C10.2857 4.23594 11.3139 4.39504 12.3108 4.84063C12.9016 5.1047 13.4116 5.48628 13.7975 6.01107C14.5179 6.99061 14.6498 8.05125 14.1874 9.17843C14.1378 9.29934 14.1578 9.36506 14.2476 9.45225C14.9762 10.1601 15.7078 10.8652 16.4225 11.587C17.4002 12.5742 17.0986 14.2288 15.8329 14.7893C15.0674 15.1282 14.327 15.026 13.7097 14.4566C12.9469 13.753 12.2208 13.0091 11.4852 12.2762C11.3814 12.1728 11.3051 12.1603 11.1674 12.2124C9.46592 12.8567 7.74318 12.1323 6.90593 10.4257C6.58274 9.76703 6.42178 9.06841 6.41419 8.33435C6.39791 8.33105 6.3816 8.32779 6.36523 8.32458ZM7.84308 8.80764C7.90636 9.43169 8.12029 9.9811 8.53479 10.4385C9.19495 11.167 10.1683 11.3054 11.0079 10.7954C11.4275 10.5406 11.6812 10.5704 12.0317 10.916C12.8674 11.7402 13.6992 12.5684 14.5434 13.3837C14.6568 13.4932 14.8263 13.5741 14.9819 13.6032C15.2358 13.6506 15.487 13.4789 15.5928 13.2417C15.7022 12.9964 15.6459 12.7212 15.4352 12.5136C14.5909 11.6821 13.7445 10.8527 12.8998 10.0216C12.5466 9.6741 12.5243 9.41112 12.7765 8.98415C13.1745 8.3103 13.2483 7.61945 12.7947 6.94275C12.3502 6.27974 11.688 5.95529 10.9237 5.81178C10.9067 5.80857 10.8879 5.81521 10.843 5.82027C11.1267 6.11182 11.3857 6.38569 11.6534 6.65079C11.8669 6.8622 11.9263 7.10646 11.8576 7.39408C11.7384 7.89319 11.6173 8.39202 11.5107 8.89393C11.4375 9.23845 11.2386 9.43594 10.8988 9.50998C10.4094 9.6166 9.9201 9.72504 9.43365 9.84442C9.11725 9.92203 8.86154 9.84654 8.63794 9.60983C8.37943 9.33622 8.10854 9.07451 7.84308 8.80764Z" fill="#5C8374"/>
</g>
<defs>
<clipPath id="clip0_1888_3410">
<rect width="18" height="18" fill="white"/>
</clipPath>
</defs>
</svg>
