<svg width="18" height="18" viewBox="0 0 18 18" fill="none" xmlns="http://www.w3.org/2000/svg">
<g clip-path="url(#clip0_1888_3345)">
<path d="M3.37502 17.9999C2.9548 17.8566 2.80268 17.5577 2.80774 17.1224C2.82163 15.9331 2.81526 14.7436 2.81143 13.5541C2.80939 12.9185 3.0089 12.3601 3.41844 11.8748C3.46326 11.8217 3.50176 11.762 3.53565 11.7011C3.95977 10.9392 4.37891 10.1745 4.80648 9.4145C5.36866 8.41525 6.24746 7.93547 7.37411 7.91508C8.45774 7.8955 9.54223 7.89511 10.6258 7.91522C11.7833 7.9367 12.6656 8.4458 13.2277 9.47729C13.5469 10.0631 13.8686 10.6477 14.1996 11.2269C14.3527 11.4949 14.5203 11.756 14.6998 12.0071C15.0094 12.4399 15.1826 12.9163 15.1847 13.4472C15.1899 14.7186 15.1873 15.9901 15.1866 17.2615C15.1864 17.6484 14.9699 17.8738 14.625 17.9999C13.9102 17.9999 13.1953 17.9999 12.4805 17.9999C11.9649 17.8312 11.8775 17.4222 11.9209 16.9556C9.96063 16.9556 8.02707 16.9556 6.07963 16.9556C6.07963 17.0172 6.07646 17.0689 6.08012 17.1201C6.11116 17.5526 5.93563 17.8527 5.51955 17.9999C4.80472 17.9999 4.08985 17.9999 3.37502 17.9999ZM13.7758 15.539C13.7758 14.8135 13.7852 14.1115 13.7686 13.4101C13.7648 13.2494 13.7 13.0731 13.6141 12.9345C13.3194 12.4594 12.8541 12.3049 12.3211 12.3048C10.1076 12.3044 7.89404 12.3042 5.6805 12.3058C5.55805 12.3059 5.43395 12.3135 5.31347 12.3342C4.7259 12.4352 4.18949 12.881 4.21483 13.6212C4.23445 14.1944 4.21873 14.7688 4.21873 15.3426C4.21873 15.4046 4.21873 15.4665 4.21873 15.5387C5.08456 15.5387 5.92701 15.5401 6.76939 15.5347C6.81383 15.5345 6.87047 15.4857 6.90003 15.4443C7.0698 15.206 7.23338 14.9633 7.39855 14.7218C7.55594 14.4916 7.77282 14.3778 8.05242 14.3784C8.69072 14.3798 9.32901 14.3805 9.96731 14.3781C10.2393 14.3771 10.4549 14.4809 10.6144 14.7013C10.7448 14.8815 10.8954 15.0506 11.0015 15.244C11.1382 15.4935 11.3253 15.5537 11.5992 15.5459C12.318 15.5254 13.0378 15.539 13.7758 15.539ZM5.58674 10.8861C7.8791 10.8861 10.1284 10.8861 12.3996 10.8861C12.2481 10.6123 12.1049 10.3588 11.9667 10.1024C11.6943 9.5971 11.2566 9.33508 10.6993 9.32545C9.56389 9.30586 8.42785 9.31128 7.29227 9.32407C6.85215 9.32903 6.4564 9.49947 6.19525 9.86158C5.96832 10.1763 5.79525 10.5298 5.58674 10.8861Z" fill="#5C8374"/>
<path d="M18 7.10156C17.976 7.15352 17.9526 7.20584 17.9277 7.25738C17.7928 7.53652 17.4839 7.69964 17.1887 7.64814C16.8636 7.59146 16.6079 7.34136 16.6005 7.01863C16.5866 6.40979 16.2923 5.99488 15.7964 5.66627C13.8247 4.35959 11.8624 3.0387 9.89666 1.72304C9.26557 1.30064 8.73355 1.29997 8.10439 1.72118C6.12907 3.04358 4.15765 4.37189 2.17589 5.68463C1.64268 6.03781 1.39939 6.49927 1.4014 7.13886C1.41177 10.4667 1.40242 13.7946 1.41089 17.1224C1.41202 17.5576 1.26299 17.856 0.84375 18C0.749988 18 0.656262 18 0.5625 18C0.279668 17.9078 0.0921094 17.7204 0 17.4375C0 13.8516 0 10.2656 0 6.67969C0.010582 6.64105 0.0252422 6.60301 0.0311836 6.56371C0.163406 5.68898 0.623988 5.03364 1.35348 4.54704C3.3429 3.22 5.32681 1.88473 7.31788 0.56018C7.54924 0.406266 7.80391 0.279281 8.06249 0.176942C8.28193 0.0901056 8.52261 0.056918 8.75391 0C8.91798 0 9.08202 0 9.24609 0C9.7419 0.0792774 10.2067 0.236109 10.628 0.518906C12.6503 1.87622 14.675 3.23005 16.699 4.58487C17.1887 4.91263 17.5675 5.33704 17.7806 5.88871C17.8787 6.14271 17.9284 6.41545 18 6.67972C18 6.82031 18 6.96094 18 7.10156Z" fill="#5C8374"/>
<path d="M17.1563 18C16.7366 17.8573 16.5858 17.5597 16.5879 17.1242C16.5983 14.9461 16.5921 12.768 16.5942 10.5899C16.5943 10.48 16.601 10.3658 16.631 10.2611C16.7119 9.97894 16.9657 9.78607 17.2507 9.77243C17.5553 9.75784 17.8173 9.91823 17.938 10.1934C17.9589 10.2408 17.9794 10.2884 18.0001 10.3359C18.0001 12.7031 18.0001 15.0703 18.0001 17.4375C17.9051 17.7175 17.7198 17.9072 17.4376 18C17.3438 18 17.2501 18 17.1563 18Z" fill="#5C8374"/>
<path d="M12.8304 13.9535C12.8326 14.3387 12.5132 14.6593 12.1276 14.659C11.7408 14.6587 11.4245 14.3398 11.4268 13.9527C11.4291 13.5741 11.7412 13.2599 12.1196 13.2553C12.504 13.2507 12.8283 13.5692 12.8304 13.9535Z" fill="#5C8374"/>
<path d="M5.8278 14.6588C5.4416 14.6545 5.12759 14.3317 5.13388 13.9455C5.14014 13.5609 5.46692 13.2465 5.85139 13.2552C6.22802 13.2637 6.5389 13.5834 6.53697 13.9603C6.53496 14.3462 6.21321 14.6631 5.8278 14.6588Z" fill="#5C8374"/>
</g>
<defs>
<clipPath id="clip0_1888_3345">
<rect width="18" height="18" fill="white"/>
</clipPath>
</defs>
</svg>
