<svg width="16" height="16" viewBox="0 0 16 16" fill="none" xmlns="http://www.w3.org/2000/svg">
<g clip-path="url(#clip0_6683_3237)">
<path d="M4.50391 0.285197C4.75679 0.345344 5.02157 0.376322 5.25954 0.473112C5.54923 0.590916 5.82056 0.757054 6.09068 0.917647C6.17112 0.9655 6.22254 0.972371 6.30455 0.934724C6.5504 0.821822 6.79814 0.711732 7.0505 0.6145C7.406 0.477572 7.74817 0.621531 7.87027 0.946978C7.9908 1.26825 7.83194 1.59245 7.48773 1.73496C7.2886 1.81737 7.09362 1.91006 6.89296 1.98833C6.79662 2.02593 6.78115 2.07395 6.8065 2.17038C7.05922 3.13149 6.85479 3.99758 6.25216 4.7774C5.89163 5.24396 5.4522 5.62127 4.94651 5.92277C4.10963 6.42175 3.19461 6.68982 2.23719 6.81928C1.84513 6.87231 1.44736 6.88248 1.05241 6.91486C0.674968 6.94576 0.411357 6.79939 0.285156 6.43248C0.285156 6.19141 0.285156 5.95033 0.285156 5.70926C0.315612 5.4616 0.342009 5.21338 0.377165 4.9664C0.511 4.02655 0.764125 3.12381 1.25033 2.30063C1.71965 1.50602 2.33382 0.858344 3.20152 0.496215C3.43371 0.399304 3.68748 0.354103 3.93136 0.285156C4.12221 0.285196 4.31306 0.285197 4.50391 0.285197ZM1.51542 5.69126C1.73866 5.66503 1.93806 5.64747 2.13554 5.61738C2.96085 5.4917 3.75425 5.26786 4.45983 4.80428C4.98087 4.46196 5.41648 4.03808 5.62975 3.43206C5.71633 3.18601 5.74338 2.9322 5.668 2.66489C5.62027 2.69414 5.58587 2.71403 5.55269 2.73573C4.88994 3.1697 4.28763 3.67334 3.76321 4.26951C3.51515 4.55152 3.1521 4.58189 2.89355 4.35637C2.62998 4.12647 2.61571 3.75747 2.86366 3.47116C3.42604 2.82171 4.07608 2.27239 4.78769 1.7939C4.85113 1.75123 4.91453 1.70852 4.99404 1.65496C4.65506 1.51884 4.33483 1.45471 3.99725 1.51133C3.46702 1.60024 3.07829 1.92107 2.73227 2.30039C2.23719 2.84317 1.95494 3.49936 1.7626 4.19839C1.63078 4.67772 1.54925 5.16577 1.51542 5.69126Z" fill="#547DE2"/>
<path d="M11.4946 15.7141C11.1952 15.6356 10.8861 15.5818 10.5991 15.471C10.3547 15.3767 10.131 15.224 9.90796 15.0819C9.8284 15.0311 9.77613 15.0269 9.69401 15.0645C9.44345 15.1792 9.19137 15.2921 8.93383 15.3897C8.58874 15.5207 8.25075 15.3724 8.12825 15.051C8.00655 14.7316 8.1675 14.4047 8.51131 14.264C8.71538 14.1805 8.91527 14.0866 9.12002 14.0048C9.20491 13.971 9.21737 13.9244 9.19559 13.8427C8.9049 12.752 9.20399 11.8135 9.93877 10.9897C10.658 10.1834 11.5778 9.7134 12.5988 9.42057C13.365 9.20084 14.1494 9.10284 14.9462 9.08066C15.3246 9.07014 15.587 9.20023 15.7134 9.5667C15.7134 9.80778 15.7134 10.0488 15.7134 10.2899C15.7052 10.3181 15.6931 10.3458 15.6894 10.3745C15.646 10.7178 15.6189 11.0639 15.5585 11.404C15.3863 12.3723 15.0721 13.289 14.4907 14.094C13.9862 14.7925 13.3638 15.3469 12.5187 15.603C12.3614 15.6507 12.1978 15.6776 12.037 15.714C11.8563 15.7141 11.6755 15.7141 11.4946 15.7141ZM11.0211 14.3498C11.6005 14.5888 12.1472 14.5656 12.667 14.2203C13.084 13.9433 13.4124 13.5819 13.6701 13.1545C14.0864 12.4641 14.3012 11.706 14.4177 10.9157C14.4465 10.7202 14.4634 10.523 14.4864 10.3213C14.4289 10.3213 14.399 10.319 14.3694 10.3216C13.6458 10.3851 12.94 10.5291 12.2678 10.8102C11.5834 11.0964 10.9894 11.5037 10.5759 12.1363C10.3398 12.4976 10.2306 12.8888 10.3238 13.3362C10.3755 13.3048 10.4181 13.2807 10.4591 13.2539C11.1181 12.8231 11.7147 12.3203 12.2361 11.7284C12.4836 11.4474 12.8472 11.4172 13.1056 11.6433C13.3685 11.8733 13.3945 12.2562 13.131 12.5258C12.7492 12.9164 12.3562 13.298 11.9457 13.658C11.6607 13.9081 11.338 14.1153 11.0211 14.3498Z" fill="#547DE2"/>
<path d="M15.7129 7.48717C15.7025 7.50971 15.6909 7.5318 15.682 7.55491C15.5698 7.84367 15.3033 8.00876 15.0214 7.9638C14.731 7.91752 14.535 7.68947 14.5062 7.38105C14.3023 5.19655 13.2773 3.50234 11.4497 2.29537C10.8719 1.91379 10.2369 1.65573 9.56496 1.48702C9.13469 1.37898 8.93404 0.974259 9.12055 0.610201C9.20934 0.43687 9.36379 0.350888 9.53543 0.285156C9.61579 0.285156 9.69615 0.285156 9.7765 0.285156C9.84276 0.306009 9.90885 0.327504 9.97535 0.347674C12.9057 1.2357 14.7621 3.15957 15.5301 6.12391C15.6199 6.47041 15.6533 6.83153 15.7129 7.18587C15.7129 7.28627 15.7129 7.38672 15.7129 7.48717Z" fill="#547DE2"/>
<path d="M0.285156 8.51115C0.298536 8.47901 0.311835 8.44683 0.325295 8.41473C0.437152 8.14754 0.704018 7.99161 0.976228 8.03436C1.26029 8.07891 1.46761 8.30484 1.48983 8.602C1.5726 9.70924 1.90564 10.7348 2.5092 11.6666C3.44657 13.1138 4.74642 14.0685 6.41858 14.5074C6.89208 14.6316 7.10173 15.0887 6.83049 15.4471C6.74314 15.5625 6.58725 15.626 6.46269 15.7132C6.38234 15.7132 6.30198 15.7132 6.22162 15.7132C6.19414 15.7024 6.16746 15.6887 6.13909 15.6814C5.59359 15.5419 5.06468 15.3557 4.56598 15.0936C2.36745 13.9386 0.978638 12.1568 0.435223 9.72792C0.369973 9.43627 0.334495 9.1379 0.285237 8.84267C0.285156 8.73214 0.285156 8.62165 0.285156 8.51115Z" fill="#547DE2"/>
<path d="M7.53961 10.5313C7.14984 10.5198 6.81382 10.4199 6.5423 10.1769C5.97739 9.67139 5.42003 9.15718 4.86765 8.63795C4.62212 8.40717 4.62365 8.03584 4.84865 7.79754C5.07887 7.5537 5.44176 7.53779 5.70096 7.77327C6.21006 8.23589 6.71297 8.70529 7.21906 9.17125C7.46725 9.39974 7.65564 9.37792 7.85156 9.09957C8.64018 7.97915 9.42945 6.85921 10.2165 5.73766C10.376 5.51041 10.5853 5.3953 10.8615 5.45167C11.2945 5.54007 11.4805 6.02008 11.2263 6.39454C10.9699 6.77234 10.7025 7.14279 10.4397 7.51633C9.88821 8.30038 9.33864 9.08583 8.78422 9.86782C8.47505 10.304 8.04184 10.5113 7.53961 10.5313Z" fill="#547DE2"/>
</g>
<defs>
<clipPath id="clip0_6683_3237">
<rect width="16" height="16" fill="white"/>
</clipPath>
</defs>
</svg>
