<svg width="8" height="9" viewBox="0 0 8 9" fill="none" xmlns="http://www.w3.org/2000/svg">
<g clip-path="url(#clip0_1888_3428)">
<path d="M-0.00818348 2.70089C0.0287275 2.55962 0.0875716 2.43282 0.206527 2.3386C0.405838 2.18069 0.695283 2.17738 0.894928 2.33653C0.933572 2.36733 0.969906 2.40138 1.00488 2.43635C1.97919 3.41027 2.95322 4.38444 3.92702 5.35884C3.94897 5.38082 3.96795 5.40578 4.01219 5.457C4.03522 5.41784 4.04624 5.38593 4.06771 5.36442C5.04833 4.38207 6.03026 3.40104 7.01091 2.41871C7.18379 2.24553 7.38168 2.17304 7.62204 2.24727C7.97928 2.3576 8.12426 2.81349 7.89611 3.10958C7.87071 3.14256 7.84302 3.17413 7.81359 3.20358C6.68479 4.33293 5.55584 5.46211 4.42646 6.59091C4.21539 6.80186 3.95308 6.84509 3.71502 6.70484C3.65751 6.67095 3.60637 6.6236 3.55873 6.576C2.45844 5.47716 1.35968 4.3768 0.258594 3.27878C0.136572 3.15709 0.0277047 3.03153 -0.0082283 2.85744C-0.00818443 2.80527 -0.00818348 2.75306 -0.00818348 2.70089Z" fill="#303030"/>
</g>
<defs>
<clipPath id="clip0_1888_3428">
<rect width="8" height="8" fill="white" transform="matrix(0 1 -1 0 8 0.5)"/>
</clipPath>
</defs>
</svg>
