<svg width="9" height="9" viewBox="0 0 9 9" fill="none" xmlns="http://www.w3.org/2000/svg">
<g clip-path="url(#clip0_1888_8748)">
<path d="M-0.00993824 2.50364C0.0315866 2.33664 0.0977869 2.18674 0.231611 2.07535C0.455836 1.88867 0.781462 1.88476 1.00606 2.07291C1.04954 2.10932 1.09041 2.14957 1.12976 2.19092C2.22586 3.34225 3.32164 4.49391 4.41716 5.64582C4.44186 5.6718 4.46321 5.70131 4.51299 5.76186C4.53889 5.71557 4.55129 5.67785 4.57544 5.65242C5.67864 4.4911 6.78331 3.33135 7.88654 2.17006C8.08104 1.96533 8.30366 1.87964 8.57406 1.96738C8.97596 2.09782 9.13906 2.63676 8.88239 2.98679C8.85381 3.02577 8.82266 3.0631 8.78956 3.09791C7.51966 4.43301 6.24959 5.7679 4.97904 7.10234C4.74159 7.35173 4.44649 7.40283 4.17866 7.23704C4.11396 7.19697 4.05644 7.14099 4.00284 7.08472C2.76501 5.78569 1.52891 4.48487 0.290187 3.18681C0.152912 3.04295 0.0304365 2.89453 -0.00998878 2.68872C-0.00993824 2.62704 -0.00993824 2.56533 -0.00993824 2.50364Z" fill="#E25C27"/>
</g>
<defs>
<clipPath id="clip0_1888_8748">
<rect width="9" height="9" fill="white" transform="matrix(0 1 -1 0 9 0)"/>
</clipPath>
</defs>
</svg>
