<svg width="16" height="16" viewBox="0 0 16 16" fill="none" xmlns="http://www.w3.org/2000/svg">
<path d="M9.2823 0.000244141C9.52783 0.0936172 9.79325 0.153867 10.0151 0.286781C10.6124 0.644607 10.915 1.19184 10.9386 1.88921C10.9437 2.0397 10.9394 2.19053 10.9394 2.36482C11.0096 2.36482 11.0701 2.36482 11.1306 2.36482C11.917 2.3649 12.7035 2.36149 13.4898 2.36653C13.9256 2.36932 14.2124 2.71094 14.129 3.11601C14.0862 3.32401 13.9657 3.48071 13.7686 3.55509C13.6578 3.59692 13.6374 3.65546 13.6375 3.76096C13.6401 5.92208 13.6398 8.08316 13.6385 10.2443C13.6384 10.3478 13.6384 10.4551 13.6131 10.5542C13.5401 10.8395 13.2655 11.022 12.961 11.0015C12.6809 10.9826 12.4431 10.7625 12.4025 10.4783C12.3908 10.3963 12.3899 10.3123 12.3899 10.2292C12.3892 8.09933 12.3894 5.9695 12.3894 3.83962C12.3894 3.77275 12.3894 3.70588 12.3894 3.62696C9.46321 3.62696 6.55006 3.62696 3.62041 3.62696C3.61775 3.68254 3.61283 3.73763 3.61283 3.79275C3.61246 6.99535 3.61196 10.198 3.61287 13.4006C3.61312 14.2369 4.13115 14.7498 4.97068 14.7499C7.01226 14.7501 9.05384 14.7508 11.0954 14.7494C11.7315 14.749 12.232 14.3554 12.3617 13.7557C12.3835 13.6546 12.3829 13.5489 12.3959 13.4457C12.4395 13.103 12.7207 12.8598 13.0476 12.8804C13.3947 12.9023 13.6404 13.1776 13.6374 13.5412C13.6282 14.6331 12.8748 15.6121 11.8157 15.9053C11.6812 15.9425 11.5437 15.9687 11.4075 16C9.13647 16 6.86543 16 4.59435 16C4.56506 15.9907 4.53635 15.9774 4.50631 15.9729C3.84216 15.8728 3.30246 15.557 2.88851 15.0305C2.51335 14.5533 2.35969 14.0055 2.36044 13.4011C2.36456 10.2034 2.36182 7.00573 2.36427 3.808C2.36436 3.67938 2.35277 3.59205 2.20603 3.5393C2.0257 3.47451 1.91812 3.32038 1.87508 3.13168C1.78145 2.72152 2.06986 2.36949 2.51165 2.36657C3.29813 2.3614 4.08461 2.36495 4.87114 2.36486C4.93168 2.36486 4.99222 2.36486 5.04659 2.36486C5.05526 2.33124 5.06005 2.32115 5.06013 2.31107C5.06118 2.18087 5.05988 2.05066 5.06234 1.9205C5.07588 1.20264 5.38538 0.644523 6.00041 0.279197C6.21844 0.1497 6.47865 0.0912009 6.7196 0.000286101C7.57379 0.000244436 8.42802 0.000244141 9.2823 0.000244141ZM6.31486 2.35403C7.44779 2.35403 8.5634 2.35403 9.68571 2.35403C9.68571 2.17224 9.69871 1.99991 9.68287 1.83025C9.65358 1.51621 9.38201 1.25768 9.06414 1.25393C8.35669 1.24555 7.64904 1.2458 6.9416 1.25368C6.61694 1.25726 6.34207 1.52246 6.31715 1.8415C6.30423 2.00658 6.31486 2.17349 6.31486 2.35403Z" fill="#D55051"/>
<path d="M7.37561 9.17069C7.37561 8.30117 7.37427 7.43164 7.37636 6.56212C7.37707 6.27833 7.53723 6.05459 7.79322 5.96317C8.03484 5.87693 8.31959 5.93863 8.46859 6.14867C8.55092 6.26475 8.61813 6.42183 8.61892 6.56087C8.62888 8.30504 8.62654 10.0493 8.62458 11.7936C8.62417 12.1621 8.35267 12.4367 8.00101 12.4371C7.64994 12.4375 7.37744 12.162 7.37636 11.7949C7.37386 10.9202 7.37557 10.0454 7.37561 9.17069Z" fill="#D55051"/>
<path d="M11.0145 9.18094C11.0145 10.0399 11.0159 10.8989 11.0138 11.7579C11.0129 12.1038 10.8468 12.3331 10.5489 12.4145C10.1988 12.5101 9.8375 12.2803 9.77896 11.9227C9.76892 11.8614 9.76509 11.7984 9.76505 11.7362C9.76434 10.0338 9.76509 8.33146 9.76367 6.62908C9.76351 6.42246 9.80763 6.23492 9.96733 6.09284C10.1651 5.91692 10.3952 5.87792 10.6358 5.97917C10.8784 6.08121 11.0087 6.27708 11.0116 6.54145C11.0171 7.04636 11.0142 7.55139 11.0145 8.05638C11.0147 8.43125 11.0146 8.80607 11.0145 9.18094Z" fill="#D55051"/>
<path d="M4.9876 9.17104C4.98776 8.30685 4.98368 7.44262 4.98935 6.57843C4.99247 6.10277 5.42704 5.79965 5.84645 5.97315C6.05903 6.06111 6.18816 6.22264 6.22432 6.45218C6.23399 6.51355 6.23699 6.57651 6.23699 6.63876C6.23766 8.33593 6.23803 10.0331 6.23711 11.7302C6.2369 12.1029 6.06582 12.3423 5.75125 12.4201C5.40238 12.5063 5.0391 12.2608 4.99801 11.9036C4.98322 11.7749 4.98797 11.6437 4.98785 11.5137C4.98705 10.7328 4.98743 9.95194 4.9876 9.17104Z" fill="#D55051"/>
</svg>
