<svg width="16" height="16" viewBox="0 0 16 16" fill="none" xmlns="http://www.w3.org/2000/svg">
<g clip-path="url(#clip0_1888_3743)">
<path d="M12.4832 3.14713e-05C13.6351 0.226594 14.382 1.03406 15.1085 1.85653C15.3459 2.12519 15.551 2.43603 15.7097 2.75772C16.1209 3.59122 15.9911 4.42919 15.3369 5.09194C14.3494 6.09231 13.3408 7.07191 12.3362 8.05525C12.0689 8.31694 11.703 8.292 11.4223 8.01156C10.4277 7.01794 9.43401 6.02347 8.43985 5.0295C8.40014 4.98978 8.35873 4.95175 8.34235 4.93606C6.54367 6.71916 4.75164 8.49563 2.95907 10.2727C3.8737 11.1799 4.78242 12.0812 5.70039 12.9918C5.86582 12.8257 6.04789 12.6433 6.22936 12.4604C7.27073 11.411 8.31279 10.3622 9.35223 9.31084C9.49814 9.16325 9.66107 9.06547 9.87292 9.07675C10.1294 9.09041 10.319 9.21669 10.4173 9.45244C10.5175 9.69272 10.4819 9.92513 10.301 10.1171C10.0699 10.3625 9.82904 10.5988 9.59154 10.8381C8.46604 11.9722 7.33957 13.1053 6.21545 14.2407C6.08451 14.3729 5.93957 14.4642 5.75698 14.5156C4.13704 14.9711 2.51848 15.4316 0.900699 15.8948C0.646324 15.9677 0.415543 15.9507 0.221637 15.7613C0.0231057 15.5674 0.000135634 15.333 0.0734169 15.0717C0.529354 13.4463 0.978012 11.8188 1.4382 10.1946C1.47723 10.0569 1.56001 9.91534 1.66092 9.81381C4.67426 6.78203 7.69354 3.75612 10.7085 0.726C11.0772 0.3555 11.5038 0.104094 12.0163 0C12.1719 3.125e-05 12.3276 3.14713e-05 12.4832 3.14713e-05ZM13.5843 5.107C13.874 4.81222 14.1675 4.51941 14.4543 4.22022C14.7278 3.93497 14.7644 3.61209 14.5825 3.26344C14.5442 3.19006 14.5065 3.11538 14.4592 3.04784C14.0237 2.42619 13.4967 1.89509 12.8694 1.46678C12.768 1.39753 12.6515 1.34772 12.5372 1.30041C12.2802 1.19394 12.0266 1.2215 11.8224 1.4045C11.4799 1.71153 11.1569 2.04025 10.8311 2.35453C11.752 3.27519 12.6572 4.18009 13.5843 5.107ZM9.22445 4.00441C10.1268 4.90709 11.0265 5.80713 11.9329 6.71375C12.1629 6.47237 12.4044 6.21888 12.6245 5.98794C11.7315 5.09313 10.8292 4.18897 9.93979 3.29775C9.70532 3.52938 9.45904 3.77266 9.22445 4.00441ZM2.35967 11.5041C2.20914 12.044 2.05298 12.5966 1.90482 13.1512C1.89401 13.1917 1.92942 13.2591 1.96351 13.2945C2.19004 13.5298 2.42489 13.7572 2.6507 13.9932C2.71851 14.0641 2.77826 14.0712 2.86882 14.0441C3.26051 13.9267 3.65479 13.818 4.04804 13.706C4.18486 13.667 4.32148 13.6273 4.46032 13.5874C3.75436 12.8873 3.06048 12.1991 2.35967 11.5041Z" fill="#F6C46A"/>
<path d="M11.5336 15.9099C10.2892 15.9099 9.04489 15.9112 7.80055 15.9091C7.38117 15.9084 7.1008 15.5939 7.15517 15.195C7.19376 14.9118 7.4293 14.6937 7.72539 14.6683C7.76661 14.6648 7.8083 14.6664 7.84976 14.6664C10.3125 14.6663 12.7753 14.667 15.238 14.6651C15.4449 14.6649 15.6314 14.7097 15.7722 14.8674C15.9463 15.0624 15.9919 15.2891 15.8875 15.5315C15.7837 15.7727 15.5921 15.9046 15.3288 15.9075C14.8 15.9132 14.2712 15.9099 13.7423 15.91C13.0061 15.9101 12.2698 15.91 11.5336 15.9099Z" fill="#F6C46A"/>
</g>
<defs>
<clipPath id="clip0_1888_3743">
<rect width="16" height="16" fill="white"/>
</clipPath>
</defs>
</svg>
