<svg width="15" height="16" viewBox="0 0 15 16" fill="none" xmlns="http://www.w3.org/2000/svg">
<path d="M0.0124512 3.78207C0.0344824 3.68304 0.0547558 3.58363 0.0787402 3.48511C0.32999 2.45296 1.25952 1.70433 2.32315 1.70281C5.77362 1.69789 9.22409 1.69675 12.6746 1.70316C13.945 1.7055 14.9785 2.74793 14.9839 4.02132C14.9908 5.68671 14.9862 7.35214 14.9854 9.01753C14.9852 9.38539 14.7369 9.64605 14.3952 9.64339C14.061 9.64081 13.8166 9.38082 13.8164 9.02101C13.8155 7.39468 13.8162 5.76831 13.8159 4.14199C13.8158 3.35933 13.3307 2.87277 12.5488 2.87269C9.18116 2.87234 5.81355 2.8723 2.44593 2.87273C1.66554 2.87281 1.18233 3.36023 1.1823 4.14542C1.18214 6.71925 1.1821 9.29308 1.18233 11.8669C1.18241 12.6416 1.66847 13.1317 2.43925 13.1319C5.81663 13.1324 9.19397 13.1325 12.5714 13.1318C13.3018 13.1316 13.7776 12.675 13.8165 11.9423C13.8337 11.6172 14.0892 11.371 14.4064 11.3739C14.7293 11.3768 14.9809 11.6349 14.9856 11.968C15.0027 13.1846 13.9785 14.2601 12.7626 14.3019C12.7091 14.3038 12.6555 14.3043 12.6018 14.3043C9.20011 14.3044 5.79835 14.3055 2.39663 14.3037C1.28374 14.3031 0.36499 13.6007 0.088037 12.5472C0.0597948 12.4398 0.0375683 12.3308 0.0125293 12.2225C0.0124511 9.40902 0.0124512 6.59554 0.0124512 3.78207Z" fill="#303030" fill-opacity="0.52"/>
<path d="M9.47815 8.00302C10.3016 8.71665 11.1086 9.41595 11.9155 10.1152C12.004 10.1918 12.093 10.2679 12.1809 10.3451C12.4558 10.5866 12.4955 10.9491 12.2752 11.2026C12.0521 11.4594 11.6937 11.4737 11.4156 11.2329C10.5308 10.4669 9.64713 9.69946 8.76299 8.93263C8.70788 8.88485 8.65229 8.83767 8.58409 8.77919C8.37667 8.95778 8.17045 9.13411 7.96557 9.31196C7.63112 9.60227 7.36585 9.60259 7.03538 9.3138C6.84077 9.14372 6.64432 8.97579 6.44842 8.80723C6.44139 8.80118 6.43143 8.79852 6.40663 8.7863C6.21042 8.95595 6.0085 9.13009 5.80706 9.3047C5.06643 9.94669 4.32674 10.5898 3.58503 11.2305C3.22467 11.5418 2.72159 11.4115 2.60338 10.9748C2.53713 10.7302 2.61276 10.5232 2.80378 10.3578C3.611 9.65856 4.41807 8.95919 5.2251 8.25974C5.32006 8.17743 5.4144 8.09438 5.51995 8.00208C5.27198 7.78622 5.0344 7.57864 4.796 7.372C4.13643 6.80024 3.4762 6.22927 2.81698 5.65712C2.53991 5.41669 2.50174 5.05685 2.72374 4.80071C2.94592 4.54435 3.30389 4.53009 3.58303 4.77177C4.82546 5.84743 6.0667 6.92442 7.30842 8.00087C7.36721 8.05185 7.42643 8.10235 7.496 8.16216C7.5387 8.1279 7.58038 8.09673 7.61963 8.0627C8.87975 6.9702 10.1442 5.88266 11.3968 4.78161C11.7769 4.44743 12.2874 4.62091 12.394 5.02618C12.462 5.28501 12.3744 5.49313 12.1754 5.66477C11.5071 6.24126 10.8405 6.81985 10.1735 7.3979C9.94577 7.59532 9.71877 7.79356 9.47815 8.00302Z" fill="#303030" fill-opacity="0.52"/>
</svg>
