<svg width="16" height="17" viewBox="0 0 16 17" fill="none" xmlns="http://www.w3.org/2000/svg">
<path d="M3.6 14.1C1.6125 14.1 0 12.4875 0 10.5C0 8.92999 1.005 7.59499 2.405 7.10249C2.4025 7.03499 2.4 6.96749 2.4 6.89999C2.4 4.68999 4.19 2.89999 6.4 2.89999C7.8825 2.89999 9.175 3.70499 9.8675 4.90499C10.2475 4.64999 10.7075 4.49999 11.2 4.49999C12.525 4.49999 13.6 5.57499 13.6 6.89999C13.6 7.20499 13.5425 7.49499 13.44 7.76499C14.9 8.05999 16 9.35249 16 10.9C16 12.6675 14.5675 14.1 12.8 14.1H3.6ZM5.575 9.92499L7.575 11.925C7.81 12.16 8.19 12.16 8.4225 11.925L10.4225 9.92499C10.6575 9.68999 10.6575 9.30999 10.4225 9.07749C10.1875 8.84499 9.8075 8.84249 9.575 9.07749L8.6 10.0525V6.69999C8.6 6.36749 8.3325 6.09999 8 6.09999C7.6675 6.09999 7.4 6.36749 7.4 6.69999V10.0525L6.425 9.07749C6.19 8.84249 5.81 8.84249 5.5775 9.07749C5.345 9.31249 5.3425 9.69249 5.5775 9.92499H5.575Z" fill="white"/>
</svg>
