<svg width="13" height="13" viewBox="0 0 13 13" fill="none" xmlns="http://www.w3.org/2000/svg">
<g clip-path="url(#clip0_1888_8745)">
<path d="M0.8125 0.8125C1.26191 0.8125 1.625 1.17559 1.625 1.625V10.1562C1.625 10.3797 1.80781 10.5625 2.03125 10.5625H12.1875C12.6369 10.5625 13 10.9256 13 11.375C13 11.8244 12.6369 12.1875 12.1875 12.1875H2.03125C0.908984 12.1875 0 11.2785 0 10.1562V1.625C0 1.17559 0.363086 0.8125 0.8125 0.8125ZM3.25 3.25C3.25 2.80059 3.61309 2.4375 4.0625 2.4375H8.9375C9.38691 2.4375 9.75 2.80059 9.75 3.25C9.75 3.69941 9.38691 4.0625 8.9375 4.0625H4.0625C3.61309 4.0625 3.25 3.69941 3.25 3.25ZM4.0625 4.875H7.3125C7.76191 4.875 8.125 5.23809 8.125 5.6875C8.125 6.13691 7.76191 6.5 7.3125 6.5H4.0625C3.61309 6.5 3.25 6.13691 3.25 5.6875C3.25 5.23809 3.61309 4.875 4.0625 4.875ZM4.0625 7.3125H10.5625C11.0119 7.3125 11.375 7.67559 11.375 8.125C11.375 8.57441 11.0119 8.9375 10.5625 8.9375H4.0625C3.61309 8.9375 3.25 8.57441 3.25 8.125C3.25 7.67559 3.61309 7.3125 4.0625 7.3125Z" fill="#5C8374"/>
</g>
<defs>
<clipPath id="clip0_1888_8745">
<rect width="13" height="13" fill="white"/>
</clipPath>
</defs>
</svg>
