<svg width="16" height="16" viewBox="0 0 16 16" fill="none" xmlns="http://www.w3.org/2000/svg">
<path d="M0 2.28571C0 1.65357 0.510714 1.14285 1.14286 1.14285H14.8571C15.4893 1.14285 16 1.65357 16 2.28571C16 2.91785 15.4893 3.42857 14.8571 3.42857H1.14286C0.510714 3.42857 0 2.91785 0 2.28571ZM0 8C0 7.36785 0.510714 6.85714 1.14286 6.85714H14.8571C15.4893 6.85714 16 7.36785 16 8C16 8.63214 15.4893 9.14285 14.8571 9.14285H1.14286C0.510714 9.14285 0 8.63214 0 8ZM16 13.7143C16 14.3464 15.4893 14.8571 14.8571 14.8571H1.14286C0.510714 14.8571 0 14.3464 0 13.7143C0 13.0821 0.510714 12.5714 1.14286 12.5714H14.8571C15.4893 12.5714 16 13.0821 16 13.7143Z" fill="#E25C27"/>
</svg>
