<svg width="16" height="17" viewBox="0 0 16 17" fill="none" xmlns="http://www.w3.org/2000/svg">
<g clip-path="url(#clip0_1888_8999)">
<path d="M16 8.09292C16 8.68673 16 9.28051 16 9.87432C15.9944 9.88314 15.9873 9.89129 15.9835 9.90082C15.8436 10.252 15.5778 10.4246 15.2673 10.3654C14.9396 10.3029 14.7503 10.0489 14.7501 9.6697C14.7498 9.26348 14.7506 8.85726 14.7498 8.45107C14.7484 7.64976 14.2204 7.12426 13.4158 7.1242C9.80716 7.12395 6.19844 7.12395 2.58975 7.12417C1.77612 7.12423 1.25047 7.64879 1.25012 8.46089C1.24966 9.55973 1.25 10.6586 1.25 11.7574C1.25 11.813 1.25 11.8686 1.25 11.9265C2.30013 11.9265 3.33284 11.9265 4.37503 11.9265C4.37503 11.422 4.37244 10.928 4.37559 10.434C4.38137 9.5246 5.05972 8.84576 5.96906 8.84376C7.30216 8.84082 8.63525 8.84079 9.96831 8.84376C10.8782 8.84579 11.5557 9.52404 11.5619 10.4339C11.5649 10.8765 11.5624 11.3192 11.5624 11.7619C11.5624 11.817 11.5624 11.8721 11.5624 11.937C11.6392 11.937 11.6958 11.937 11.7523 11.937C12.9083 11.937 14.0645 11.945 15.2204 11.9325C15.6084 11.9283 15.8735 12.0623 15.9999 12.437C15.9999 13.26 15.9999 14.083 15.9999 14.906C15.8728 15.2802 15.6074 15.4177 15.2197 15.4103C14.4543 15.3958 13.6885 15.4071 12.9229 15.4056C12.509 15.4047 12.2514 15.1458 12.2503 14.732C12.249 14.2737 12.25 13.8153 12.25 13.3569C12.25 13.3023 12.25 13.2477 12.25 13.1957C9.40494 13.1957 6.58412 13.1957 3.74997 13.1957C3.74997 13.7082 3.75059 14.2122 3.74978 14.7162C3.74906 15.1508 3.49572 15.4052 3.06144 15.4058C2.30103 15.4068 1.54044 15.3958 0.780313 15.4103C0.392688 15.4178 0.12675 15.2808 0 14.906C0 12.635 0 10.3639 0 8.09292C0.04625 7.91285 0.0821875 7.72939 0.140781 7.55345C0.274813 7.1512 0.511031 6.81176 0.813094 6.52895C0.651219 6.37567 0.480156 6.24339 0.347656 6.07989C0.212094 5.9126 0.114312 5.7147 0 5.5302C0 5.44685 0 5.36351 0 5.28017C0.0934687 5.00895 0.26175 4.81482 0.561 4.78476C0.86775 4.75395 1.05891 4.92289 1.22172 5.16807C1.32066 5.31707 1.47694 5.42804 1.62488 5.57314C1.66881 5.46264 1.69428 5.40039 1.71844 5.3376C1.95744 4.71657 2.18413 4.09045 2.43806 3.4756C2.76166 2.6921 3.34584 2.18992 4.17228 1.99651C5.06078 1.78857 5.96616 1.68464 6.87588 1.62882C8.41534 1.53435 9.94253 1.63445 11.4632 1.90007C12.5514 2.09014 13.292 2.66026 13.6643 3.71035C13.8639 4.2736 14.0931 4.82642 14.3094 5.38376C14.3273 5.42967 14.3488 5.47417 14.3912 5.5712C14.5641 5.37998 14.7249 5.22654 14.8567 5.05126C15.1513 4.65935 15.7298 4.7006 15.9382 5.13789C15.9604 5.18454 15.9795 5.23273 16 5.2802C16 5.36354 16 5.44689 16 5.53023C15.8333 5.9446 15.5255 6.24101 15.1703 6.50714C15.2113 6.55001 15.2458 6.58689 15.2811 6.62295C15.601 6.94948 15.8152 7.33539 15.928 7.77773C15.9546 7.8821 15.9761 7.98782 16 8.09292ZM13.1446 5.86923C13.137 5.83835 13.1336 5.81314 13.1247 5.79004C12.8853 5.16951 12.6525 4.54623 12.4027 3.92985C12.2389 3.52576 11.9266 3.2791 11.5005 3.18826C10.5054 2.9761 9.49728 2.87073 8.48119 2.84779C7.1765 2.81832 5.88366 2.92907 4.60125 3.17826C4.08366 3.27882 3.73656 3.55198 3.55219 4.04485C3.34097 4.60942 3.12128 5.17076 2.90588 5.73376C2.89003 5.77514 2.87913 5.81842 2.86331 5.86923C6.29816 5.86923 9.71697 5.86923 13.1446 5.86923ZM10.3117 11.931C10.3117 11.4102 10.3157 10.9055 10.3096 10.401C10.3073 10.2057 10.1698 10.0938 9.95284 10.0937C8.63028 10.0927 7.30772 10.0926 5.98516 10.0937C5.74178 10.0939 5.62681 10.2139 5.62534 10.4628C5.62384 10.7179 5.625 10.9731 5.625 11.2283C5.625 11.4608 5.625 11.6933 5.625 11.9258C5.89544 11.9258 6.14706 11.9258 6.40628 11.9258C6.40628 11.738 6.40538 11.5614 6.40647 11.3849C6.40887 11.0007 6.66675 10.7225 7.02309 10.7185C7.38741 10.7144 7.65322 10.9934 7.656 11.3844C7.65728 11.5647 7.65622 11.7452 7.65622 11.9259C7.8745 11.9259 8.07403 11.9259 8.28128 11.9259C8.28128 11.7382 8.28037 11.5616 8.28147 11.3851C8.28387 11.0008 8.54159 10.7227 8.89794 10.7185C9.26228 10.7143 9.52822 10.9933 9.53103 11.3842C9.53231 11.5646 9.53125 11.745 9.53125 11.9311C9.79753 11.931 10.0454 11.931 10.3117 11.931ZM2.49306 13.1982C2.073 13.1982 1.66559 13.1982 1.26253 13.1982C1.26253 13.5233 1.26253 13.8371 1.26253 14.1477C1.67881 14.1477 2.08256 14.1477 2.49306 14.1477C2.49306 13.8294 2.49306 13.5193 2.49306 13.1982ZM14.7442 13.1994C14.3206 13.1994 13.9132 13.1994 13.5082 13.1994C13.5082 13.5217 13.5082 13.8318 13.5082 14.1465C13.9237 14.1465 14.3311 14.1465 14.7442 14.1465C14.7442 13.827 14.7442 13.5169 14.7442 13.1994Z" fill="#303030"/>
<path d="M2.81532 9.15611C2.92445 9.15599 3.0337 9.1527 3.1427 9.15658C3.48554 9.16886 3.75114 9.44408 3.74992 9.78271C3.74873 10.1142 3.48801 10.3909 3.15339 10.4031C2.92504 10.4115 2.69582 10.4121 2.46754 10.4028C2.13348 10.3892 1.87482 10.1099 1.87598 9.77792C1.87711 9.44574 2.13811 9.17214 2.47239 9.15708C2.58648 9.15192 2.70098 9.15624 2.81532 9.15611Z" fill="#303030"/>
<path d="M13.1828 9.15627C13.2971 9.15614 13.4117 9.15196 13.5258 9.15696C13.8603 9.17158 14.122 9.44436 14.1239 9.77614C14.1258 10.1081 13.8676 10.3888 13.5339 10.4026C13.3005 10.4122 13.0659 10.4131 12.8325 10.402C12.4995 10.386 12.2448 10.1015 12.2501 9.76883C12.2553 9.44368 12.5129 9.17433 12.8399 9.15736C12.9539 9.15139 13.0685 9.15636 13.1828 9.15627Z" fill="#303030"/>
</g>
<defs>
<clipPath id="clip0_1888_8999">
<rect width="16" height="16" fill="white" transform="translate(0 0.5)"/>
</clipPath>
</defs>
</svg>
