<svg width="15" height="16" viewBox="0 0 15 16" fill="none" xmlns="http://www.w3.org/2000/svg">
<g clip-path="url(#clip0_2393_2496)">
<path d="M0.457324 15.5223C0.102913 15.3976 -0.0235585 15.1428 -0.0165732 14.7748C-0.00223492 14.002 -0.00738055 13.2289 -0.0151011 12.4561C-0.017307 12.2134 0.0643095 12.0252 0.234162 11.8557C1.85879 10.2355 3.47975 8.61196 5.10254 6.99064C5.14041 6.95277 5.18894 6.9263 5.21872 6.90461C5.06725 6.57557 4.91026 6.28623 4.7974 5.98071C4.44299 5.02189 4.64777 4.16821 5.35144 3.44432C6.08784 2.68659 6.84225 1.94652 7.59593 1.20608C8.33747 0.477772 9.31578 0.309758 10.2757 0.707552C11.2143 1.09652 12.0801 1.59689 12.8283 2.2899C13.5926 2.99799 14.1636 3.84395 14.6025 4.78329C14.782 5.16748 14.9496 5.55682 15.0176 5.98035C15.0176 6.13696 15.0176 6.29358 15.0176 6.4502C14.965 6.65204 14.9261 6.85865 14.857 7.05461C14.7382 7.39211 14.5297 7.67557 14.2775 7.92704C13.5286 8.67299 12.782 9.42079 12.0294 10.1627C11.2636 10.9178 10.2474 11.0921 9.27497 10.6329C8.91762 10.4642 8.56762 10.2785 8.22129 10.0877C7.9996 9.96527 7.90071 9.76049 7.93196 9.50829C7.96247 9.2627 8.10438 9.09689 8.34152 9.02226C8.51431 8.96784 8.67644 9.00498 8.83527 9.08917C9.14997 9.25645 9.46468 9.42446 9.78637 9.5774C10.2941 9.81895 10.7878 9.73733 11.1886 9.34248C11.9551 8.58696 12.7176 7.82704 13.4772 7.06454C13.8577 6.68255 13.9353 6.21196 13.7294 5.7149C13.4456 5.02924 13.0959 4.38292 12.632 3.80093C11.9779 2.97961 11.1511 2.38623 10.2011 1.95792C9.96651 1.85204 9.72387 1.7524 9.4746 1.69321C9.12019 1.60939 8.79887 1.72079 8.51982 1.9513C8.4746 1.98843 8.43196 2.02924 8.39041 2.07042C7.66173 2.79468 6.93269 3.51895 6.20548 4.24468C5.76909 4.67998 5.68453 5.16711 5.95549 5.71601C6.10254 6.0138 6.25953 6.30682 6.41799 6.59873C6.60622 6.94542 6.57791 7.17667 6.2996 7.45535C4.62534 9.13035 2.95181 10.8053 1.27497 12.4778C1.19188 12.5609 1.15806 12.6417 1.15916 12.7587C1.16541 13.2814 1.16174 13.8046 1.16174 14.3377C1.63196 14.3377 2.09335 14.3377 2.57093 14.3377C2.57093 14.023 2.57093 13.7116 2.57093 13.3998C2.57129 12.923 2.79188 12.7039 3.27277 12.7039C3.58012 12.7039 3.88784 12.7039 4.20732 12.7039C4.21027 12.648 4.21431 12.6009 4.21468 12.5539C4.21541 12.2506 4.21027 11.9469 4.21688 11.6436C4.22424 11.3123 4.46541 11.066 4.79409 11.0623C5.34666 11.0557 5.8996 11.0561 6.45255 11.0623C6.78122 11.066 7.02975 11.3234 7.03196 11.6425C7.03416 11.9601 6.78894 12.2201 6.4599 12.2311C6.16174 12.241 5.86321 12.234 5.56468 12.2344C5.51174 12.2344 5.4588 12.2344 5.38894 12.2344C5.38894 12.5524 5.38894 12.8587 5.38894 13.1653C5.38894 13.6612 5.17056 13.8785 4.67313 13.8785C4.37056 13.8785 4.06762 13.8785 3.74519 13.8785C3.74519 14.0708 3.74519 14.2546 3.74519 14.4388C3.74519 14.5513 3.73784 14.6645 3.74666 14.7763C3.77534 15.1443 3.63049 15.3991 3.27571 15.5237C2.336 15.5223 1.39666 15.5223 0.457324 15.5223Z" fill="#303030" fill-opacity="0.52"/>
<path d="M10.6681 5.53958C10.1567 5.53664 9.73683 5.11642 9.73463 4.60502C9.73242 4.09068 10.1644 3.65943 10.6776 3.66311C11.1879 3.66715 11.6096 4.08995 11.6111 4.59951C11.6126 5.11532 11.1843 5.54215 10.6681 5.53958Z" fill="#303030" fill-opacity="0.52"/>
</g>
<defs>
<clipPath id="clip0_2393_2496">
<rect width="15" height="15" fill="white" transform="translate(0 0.5)"/>
</clipPath>
</defs>
</svg>
