<svg width="16" height="16" viewBox="0 0 16 16" fill="none" xmlns="http://www.w3.org/2000/svg">
<path d="M8 8C9.06087 8 10.0783 7.57857 10.8284 6.82843C11.5786 6.07828 12 5.06087 12 4C12 2.93913 11.5786 1.92172 10.8284 1.17157C10.0783 0.421427 9.06087 0 8 0C6.93913 0 5.92172 0.421427 5.17157 1.17157C4.42143 1.92172 4 2.93913 4 4C4 5.06087 4.42143 6.07828 5.17157 6.82843C5.92172 7.57857 6.93913 8 8 8ZM6.57188 9.5C3.49375 9.5 1 11.9937 1 15.0719C1 15.5844 1.41563 16 1.92813 16H14.0719C14.5844 16 15 15.5844 15 15.0719C15 11.9937 12.5063 9.5 9.42813 9.5H6.57188Z" fill="#303030"/>
</svg>
