<svg width="15" height="16" viewBox="0 0 15 16" fill="none" xmlns="http://www.w3.org/2000/svg">
<g clip-path="url(#clip0_2393_2527)">
<path d="M7.85162 0.50003C8.09959 0.547315 8.35075 0.582031 8.59503 0.643848C10.34 1.08556 11.6474 2.62212 11.8128 4.41743C12.0153 6.61443 10.5869 8.58556 8.4278 9.06731C8.11151 9.13789 7.78005 9.16291 7.455 9.16763C6.20578 9.18576 4.98563 9.35489 3.8168 9.81541C3.15469 10.0763 2.53365 10.4111 1.99275 10.8791C1.45295 11.3462 1.18272 11.9427 1.17281 12.6554C1.16792 13.0068 1.1705 13.3584 1.17234 13.7099C1.17428 14.0792 1.41908 14.3274 1.78705 14.3275C5.59529 14.3284 9.40351 14.3284 13.2117 14.3275C13.5798 14.3275 13.8291 14.0796 13.8268 13.711C13.824 13.2525 13.8378 12.7917 13.7965 12.3363C13.7446 11.7649 13.4694 11.2897 13.0413 10.9082C12.604 10.5185 12.1038 10.2271 11.5727 9.98472C11.2661 9.8448 11.1319 9.56325 11.22 9.2682C11.3132 8.95616 11.6494 8.75486 11.9474 8.88148C12.8871 9.28083 13.7497 9.79733 14.3631 10.6448C14.7071 11.1201 14.9036 11.6569 14.9735 12.2398C14.9774 12.2724 14.9909 12.3039 15 12.3359C15 12.8828 15 13.4297 15 13.9766C14.9897 14.0078 14.9768 14.0384 14.9696 14.0703C14.8223 14.7236 14.4372 15.1707 13.8091 15.4044C13.7013 15.4445 13.5876 15.4685 13.4766 15.5C9.49219 15.5 5.50781 15.5 1.52344 15.5C1.49221 15.4897 1.46159 15.4766 1.42966 15.4697C0.912979 15.3583 0.504082 15.0857 0.24583 14.6239C0.134355 14.4247 0.0801855 14.1933 0 13.9766C0 13.4297 0 12.8828 0 12.3359C0.00852539 12.3086 0.0215622 12.2819 0.0249606 12.254C0.140068 11.314 0.565782 10.543 1.29018 9.93696C2.09136 9.26668 3.00937 8.81422 4.00049 8.50288C4.27254 8.41742 4.5496 8.3479 4.82484 8.27094C4.81992 8.25494 4.81977 8.24366 4.81409 8.23804C4.79678 8.22096 4.77727 8.20616 4.75875 8.19028C3.59473 7.19331 3.05821 5.93264 3.18996 4.40272C3.33932 2.66826 4.6144 1.14034 6.2925 0.676221C6.57261 0.59876 6.86285 0.557832 7.14841 0.5C7.38287 0.500029 7.61725 0.50003 7.85162 0.50003ZM10.664 4.84124C10.6666 3.10165 9.25368 1.67908 7.51644 1.67208C5.7694 1.66505 4.3415 3.07974 4.33614 4.82296C4.33075 6.56926 5.7472 7.99566 7.49083 7.99991C9.23613 8.00413 10.6614 6.5854 10.664 4.84124Z" fill="#303030" fill-opacity="0.52"/>
</g>
<defs>
<clipPath id="clip0_2393_2527">
<rect width="15" height="15" fill="white" transform="translate(0 0.5)"/>
</clipPath>
</defs>
</svg>
